<svg width="99" height="100" viewBox="0 0 99 100" fill="none" xmlns="http://www.w3.org/2000/svg">
<path d="M74.2097 0.5C80.7841 0.500469 87.0891 3.11235 91.738 7.76116C96.3868 12.41 98.9986 18.715 98.9991 25.2894C98.9991 31.843 96.3958 38.1282 91.7619 42.7624C87.128 47.3967 80.843 50.0004 74.2894 50.0009H74.2097C70.9647 50.0009 67.7514 49.3617 64.7533 48.1198C61.7553 46.8779 59.0312 45.0576 56.7367 42.7629C54.4422 40.4682 52.6221 37.7441 51.3804 34.7459C50.1387 31.7478 49.4998 28.5345 49.5 25.2894V25.2097C49.5 18.6563 52.1033 12.3713 56.7373 7.73731C61.3713 3.10334 67.6563 0.5 74.2097 0.5V0.5Z" fill="#0051FF"/>
<path d="M24.7097 50.001H24.7894C28.0345 50.0007 31.2478 50.6397 34.2459 51.8814C37.2441 53.1231 39.9682 54.9431 42.2629 57.2377C44.5576 59.5322 46.3779 62.2563 47.6198 65.2543C48.8617 68.2523 49.5009 71.4656 49.5009 74.7107V74.7903C49.5004 81.3439 46.8967 87.629 42.2624 92.2629C37.6282 96.8968 31.343 99.5001 24.7894 99.5001H0V74.7107C0 68.1573 2.60334 61.8723 7.23731 57.2383C11.8713 52.6043 18.1563 50.001 24.7097 50.001Z" fill="#0051FF"/>
<path d="M24.7894 50.0009C18.2147 50.0004 11.9094 47.3883 7.26053 42.7391C2.61167 38.0899 -1.67507e-08 31.7845 0 25.2097H0C0.000469282 18.6565 2.60396 12.3717 7.23783 7.73783C11.8717 3.10396 18.1565 0.500469 24.7097 0.5L24.7894 0.5C31.343 0.5 37.6282 3.10328 42.2624 7.73721C46.8967 12.3711 49.5004 18.6561 49.5009 25.2097V25.2894C49.5009 28.5345 48.8617 31.7479 47.6198 34.7461C46.378 37.7442 44.5577 40.4684 42.2631 42.7631C39.9684 45.0577 37.2442 46.878 34.2461 48.1198C31.2479 49.3617 28.0345 50.0009 24.7894 50.0009Z" fill="#0051FF"/>
<path d="M74.2097 50.001H74.2894C80.8428 50.001 87.1278 52.6043 91.7618 57.2383C96.3958 61.8723 98.9991 68.1573 98.9991 74.7107V74.7903C98.9986 81.3436 96.3952 87.6284 91.7613 92.2623C87.1274 96.8961 80.8427 99.4996 74.2894 99.5001C67.7148 99.5001 61.4095 96.8884 56.7606 92.2394C52.1117 87.5905 49.5 81.2853 49.5 74.7107C49.4998 71.4657 50.1387 68.2525 51.3804 65.2544C52.6221 62.2564 54.4422 59.5323 56.7368 57.2378C59.0314 54.9432 61.7554 53.1231 64.7535 51.8814C67.7515 50.6397 70.9647 50.0007 74.2097 50.001Z" fill="#0051FF"/>
</svg>
