<svg width="200" height="92" viewBox="0 0 200 92" fill="none" xmlns="http://www.w3.org/2000/svg">
<g filter="url(#filter0_d_908_1287)">
<rect x="20.8105" y="10.4731" width="169.64" height="61.6359" rx="30.818" fill="white"/>
</g>
<g filter="url(#filter1_d_908_1287)">
<circle cx="52.9324" cy="41.1209" r="23.8621" fill="white"/>
</g>
<path d="M94.4607 43.0606C94.4607 43.8624 94.1712 44.4942 93.5921 44.9558C93.0171 45.4175 92.2152 45.6483 91.1867 45.6483C90.2391 45.6483 89.4008 45.4701 88.6719 45.1138V43.3643C89.2712 43.6316 89.7774 43.8199 90.1905 43.9293C90.6076 44.0386 90.9882 44.0933 91.3324 44.0933C91.7455 44.0933 92.0614 44.0143 92.28 43.8564C92.5028 43.6984 92.6141 43.4636 92.6141 43.1517C92.6141 42.9776 92.5655 42.8237 92.4683 42.6901C92.3712 42.5524 92.2274 42.4208 92.0371 42.2953C91.8508 42.1697 91.4681 41.9693 90.889 41.6939C90.3464 41.4388 89.9394 41.1938 89.6681 40.9589C89.3967 40.724 89.1801 40.4507 89.0181 40.1389C88.8561 39.827 88.7751 39.4626 88.7751 39.0455C88.7751 38.2599 89.0404 37.6423 89.5709 37.1928C90.1054 36.7433 90.8424 36.5185 91.7819 36.5185C92.2436 36.5185 92.683 36.5732 93.1001 36.6826C93.5212 36.7919 93.9606 36.9458 94.4182 37.1442L93.8108 38.6081C93.337 38.4137 92.9442 38.2781 92.6324 38.2011C92.3246 38.1242 92.0209 38.0857 91.7212 38.0857C91.3648 38.0857 91.0915 38.1687 90.9012 38.3348C90.7108 38.5008 90.6157 38.7175 90.6157 38.9847C90.6157 39.1508 90.6541 39.2966 90.7311 39.4221C90.808 39.5436 90.9295 39.663 91.0955 39.7805C91.2656 39.8939 91.6645 40.1004 92.2922 40.4001C93.1224 40.7969 93.6913 41.1958 93.9991 41.5967C94.3068 41.9936 94.4607 42.4815 94.4607 43.0606Z" fill="#151515"/>
<path d="M101.32 45.5268L100.798 43.1517L100.093 40.151H100.051L98.8117 45.5268H96.8193L94.8876 38.7357H96.7342L97.5178 41.7425C97.6434 42.2811 97.7709 43.0242 97.9005 43.9718H97.937C97.9532 43.664 98.024 43.176 98.1496 42.5079L98.2468 41.9915L99.085 38.7357H101.126L101.922 41.9915C101.938 42.0806 101.962 42.2122 101.995 42.3864C102.031 42.5605 102.065 42.7468 102.098 42.9452C102.13 43.1396 102.159 43.3319 102.183 43.5223C102.211 43.7086 102.227 43.8584 102.232 43.9718H102.268C102.304 43.6802 102.369 43.2813 102.462 42.7751C102.555 42.2649 102.622 41.9207 102.663 41.7425L103.477 38.7357H105.293L103.337 45.5268H101.32Z" fill="#151515"/>
<path d="M106.127 36.9802C106.127 36.3768 106.463 36.0751 107.135 36.0751C107.807 36.0751 108.144 36.3768 108.144 36.9802C108.144 37.2677 108.059 37.4925 107.888 37.6545C107.722 37.8124 107.471 37.8914 107.135 37.8914C106.463 37.8914 106.127 37.5876 106.127 36.9802ZM108.059 45.5268H106.206V38.7357H108.059V45.5268Z" fill="#151515"/>
<path d="M113.576 40.1267H111.972V45.5268H110.119V40.1267H109.099V39.2338L110.119 38.7357V38.2376C110.119 37.4641 110.31 36.8992 110.69 36.5428C111.071 36.1865 111.681 36.0083 112.519 36.0083C113.159 36.0083 113.728 36.1035 114.226 36.2938L113.752 37.6545C113.379 37.537 113.035 37.4783 112.719 37.4783C112.456 37.4783 112.266 37.5573 112.148 37.7152C112.031 37.8691 111.972 38.0675 111.972 38.3105V38.7357H113.576V40.1267Z" fill="#151515"/>
<path d="M117.319 44.1722C117.643 44.1722 118.032 44.1014 118.486 43.9596V45.3385C118.024 45.545 117.457 45.6483 116.785 45.6483C116.044 45.6483 115.503 45.462 115.163 45.0895C114.827 44.7128 114.659 44.15 114.659 43.4008V40.1267H113.772V39.3431L114.792 38.7235L115.327 37.29H116.511V38.7357H118.413V40.1267H116.511V43.4008C116.511 43.664 116.584 43.8584 116.73 43.9839C116.88 44.1095 117.076 44.1722 117.319 44.1722Z" fill="#151515"/>
<path d="M130.237 41.0014C130.237 42.4633 129.82 43.583 128.985 44.3605C128.155 45.1381 126.955 45.5268 125.383 45.5268H122.869V36.6461H125.657C127.106 36.6461 128.232 37.0288 129.034 37.7942C129.836 38.5595 130.237 39.6286 130.237 41.0014ZM128.281 41.05C128.281 39.1427 127.438 38.189 125.754 38.189H124.752V43.9718H125.559C127.374 43.9718 128.281 42.9979 128.281 41.05Z" fill="#151515"/>
<path d="M134.557 39.9263C134.164 39.9263 133.857 40.0518 133.634 40.3029C133.411 40.5499 133.284 40.9022 133.251 41.3598H135.851C135.843 40.9022 135.724 40.5499 135.493 40.3029C135.262 40.0518 134.95 39.9263 134.557 39.9263ZM134.818 45.6483C133.725 45.6483 132.871 45.3466 132.255 44.7432C131.64 44.1398 131.332 43.2854 131.332 42.1798C131.332 41.0419 131.615 40.1632 132.182 39.5436C132.753 38.9199 133.541 38.6081 134.545 38.6081C135.505 38.6081 136.252 38.8815 136.787 39.4282C137.321 39.9749 137.588 40.7301 137.588 41.6939V42.5929H133.209C133.229 43.1193 133.385 43.5304 133.677 43.826C133.968 44.1216 134.377 44.2694 134.904 44.2694C135.313 44.2694 135.699 44.2269 136.064 44.1419C136.428 44.0568 136.809 43.9212 137.206 43.7349V45.1684C136.882 45.3304 136.536 45.4499 136.167 45.5268C135.798 45.6078 135.349 45.6483 134.818 45.6483Z" fill="#151515"/>
<path d="M140.761 45.5268H138.908V36.0751H140.761V45.5268Z" fill="#151515"/>
<path d="M142.445 36.9802C142.445 36.3768 142.781 36.0751 143.454 36.0751C144.126 36.0751 144.462 36.3768 144.462 36.9802C144.462 37.2677 144.377 37.4925 144.207 37.6545C144.041 37.8124 143.79 37.8914 143.454 37.8914C142.781 37.8914 142.445 37.5876 142.445 36.9802ZM144.377 45.5268H142.524V38.7357H144.377V45.5268Z" fill="#151515"/>
<path d="M147.756 45.5268L145.168 38.7357H147.106L148.418 42.605C148.564 43.095 148.655 43.5587 148.691 43.9961H148.728C148.748 43.6073 148.839 43.1436 149.001 42.605L150.307 38.7357H152.245L149.657 45.5268H147.756Z" fill="#151515"/>
<path d="M155.849 39.9263C155.456 39.9263 155.148 40.0518 154.925 40.3029C154.703 40.5499 154.575 40.9022 154.543 41.3598H157.142C157.134 40.9022 157.015 40.5499 156.784 40.3029C156.553 40.0518 156.241 39.9263 155.849 39.9263ZM156.11 45.6483C155.016 45.6483 154.162 45.3466 153.546 44.7432C152.931 44.1398 152.623 43.2854 152.623 42.1798C152.623 41.0419 152.907 40.1632 153.474 39.5436C154.045 38.9199 154.832 38.6081 155.836 38.6081C156.796 38.6081 157.543 38.8815 158.078 39.4282C158.612 39.9749 158.88 40.7301 158.88 41.6939V42.5929H154.5C154.52 43.1193 154.676 43.5304 154.968 43.826C155.259 44.1216 155.668 44.2694 156.195 44.2694C156.604 44.2694 156.991 44.2269 157.355 44.1419C157.72 44.0568 158.1 43.9212 158.497 43.7349V45.1684C158.173 45.3304 157.827 45.4499 157.458 45.5268C157.09 45.6078 156.64 45.6483 156.11 45.6483Z" fill="#151515"/>
<path d="M163.99 38.6081C164.241 38.6081 164.45 38.6263 164.616 38.6628L164.476 40.4001C164.326 40.3596 164.144 40.3393 163.929 40.3393C163.338 40.3393 162.876 40.4912 162.544 40.7949C162.216 41.0986 162.052 41.5238 162.052 42.0705V45.5268H160.2V38.7357H161.603L161.876 39.8777H161.967C162.178 39.497 162.461 39.1913 162.818 38.9604C163.178 38.7256 163.569 38.6081 163.99 38.6081Z" fill="#151515"/>
<path d="M164.69 38.7357H166.719L168.001 42.5565C168.11 42.8885 168.185 43.2813 168.225 43.7349H168.262C168.306 43.3178 168.394 42.925 168.523 42.5565L169.781 38.7357H171.767L168.894 46.3954C168.63 47.1041 168.254 47.6346 167.764 47.9869C167.278 48.3392 166.709 48.5154 166.057 48.5154C165.737 48.5154 165.423 48.481 165.115 48.4121V46.9421C165.338 46.9948 165.581 47.0211 165.844 47.0211C166.172 47.0211 166.458 46.9199 166.701 46.7174C166.948 46.519 167.14 46.2173 167.278 45.8123L167.387 45.4782L164.69 38.7357Z" fill="#151515"/>
<defs>
<filter id="filter0_d_908_1287" x="0.160639" y="0.377634" width="199.009" height="91.0045" filterUnits="userSpaceOnUse" color-interpolation-filters="sRGB">
<feFlood flood-opacity="0" result="BackgroundImageFix"/>
<feColorMatrix in="SourceAlpha" type="matrix" values="0 0 0 0 0 0 0 0 0 0 0 0 0 0 0 0 0 0 127 0" result="hardAlpha"/>
<feOffset dx="-5.96553" dy="4.58887"/>
<feGaussianBlur stdDeviation="7.34219"/>
<feComposite in2="hardAlpha" operator="out"/>
<feColorMatrix type="matrix" values="0 0 0 0 0.945833 0 0 0 0 0.668021 0 0 0 0 0.0449272 0 0 0 0.2 0"/>
<feBlend mode="normal" in2="BackgroundImageFix" result="effect1_dropShadow_908_1287"/>
<feBlend mode="normal" in="SourceGraphic" in2="effect1_dropShadow_908_1287" result="shape"/>
</filter>
<filter id="filter1_d_908_1287" x="8.4204" y="7.16328" width="77.0934" height="77.0929" filterUnits="userSpaceOnUse" color-interpolation-filters="sRGB">
<feFlood flood-opacity="0" result="BackgroundImageFix"/>
<feColorMatrix in="SourceAlpha" type="matrix" values="0 0 0 0 0 0 0 0 0 0 0 0 0 0 0 0 0 0 127 0" result="hardAlpha"/>
<feOffset dx="-5.96553" dy="4.58887"/>
<feGaussianBlur stdDeviation="7.34219"/>
<feComposite in2="hardAlpha" operator="out"/>
<feColorMatrix type="matrix" values="0 0 0 0 0.945833 0 0 0 0 0.668021 0 0 0 0 0.0449272 0 0 0 0.2 0"/>
<feBlend mode="normal" in2="BackgroundImageFix" result="effect1_dropShadow_908_1287"/>
<feBlend mode="normal" in="SourceGraphic" in2="effect1_dropShadow_908_1287" result="shape"/>
</filter>
</defs>
</svg>
