<svg width="223" height="141" viewBox="0 0 223 141" fill="none" xmlns="http://www.w3.org/2000/svg">
<path d="M199.568 39.7102C195.376 24.0655 182.922 11.0474 167.758 6.87933C152.593 2.71124 135.289 7.71768 124.569 19.6675C119.333 25.5022 115.56 32.8512 109.306 37.4858C101.694 43.1278 91.6978 43.8005 82.3779 43.2089C73.058 42.6173 63.6401 40.9677 54.4521 42.7458C39.7269 45.5955 27.0705 57.8766 23.3521 72.9027C19.6336 87.9287 25.1031 104.888 36.742 114.55L49.6113 125.198C61.4124 133.768 106.119 137.344 133.957 135.224C153.661 133.724 167.122 126.162 178.987 114.357C188.169 105.23 193.608 92.7662 197.242 80.1537C201.048 67.0207 203.093 52.8736 199.568 39.7102Z" fill="#F5F5F5"/>
<path d="M207.437 138.531C207.437 138.578 160.993 138.618 103.719 138.618C46.4439 138.618 0 138.588 0 138.531C0 138.473 46.4337 138.443 103.732 138.443C161.031 138.443 207.437 138.483 207.437 138.531Z" fill="#263238"/>
<path d="M144.005 20.8893L140.789 23.6403L145.082 28.6604L148.299 25.9094L144.005 20.8893Z" fill="#263238"/>
<path d="M146.785 20.4991L140.166 26.185L135.525 20.7763C137.351 18.2139 139.528 16.2803 142.134 15.0904L146.785 20.4991Z" fill="#F0F0F0"/>
<path d="M141.282 25.2317C141.245 25.2655 140.126 24.035 138.781 22.4901C137.435 20.9453 136.374 19.6675 136.414 19.6337C136.455 19.5999 137.57 20.8304 138.916 22.3752C140.261 23.9201 141.319 25.2013 141.282 25.2317Z" fill="#263238"/>
<path d="M142.533 24.15C142.265 23.8898 142.017 23.6107 141.789 23.315C141.343 22.791 140.738 22.0643 140.072 21.2529L138.381 19.1706L137.874 18.5385C137.753 18.383 137.688 18.312 137.688 18.3018C137.756 18.241 138.882 19.5222 140.214 21.1414C140.89 21.9527 141.471 22.693 141.904 23.2373C142.14 23.5224 142.35 23.8278 142.533 24.15Z" fill="#263238"/>
<path d="M144.223 22.7065C143.951 22.4471 143.699 22.168 143.469 21.8715C143.02 21.3408 142.411 20.6005 141.742 19.779L140.051 17.6629L139.544 17.0172C139.479 16.9402 139.42 16.8577 139.369 16.7704C139.659 17.0104 139.92 17.2839 140.146 17.5851C140.603 18.1091 141.218 18.846 141.884 19.6675C142.55 20.4889 143.148 21.2428 143.574 21.7938C143.816 22.0793 144.033 22.3846 144.223 22.7065Z" fill="#263238"/>
<path d="M145.748 21.3544C145.71 21.3848 144.598 20.1442 143.263 18.5824C141.928 17.0207 140.88 15.7259 140.917 15.6921C140.954 15.6583 142.063 16.9023 143.398 18.4675C144.733 20.0326 145.785 21.324 145.748 21.3544Z" fill="#263238"/>
<path d="M200.648 24.3065L197.724 21.2466L192.948 25.8102L195.872 28.87L200.648 24.3065Z" fill="#263238"/>
<path d="M200.788 27.3174L194.764 21.0129L199.912 16.0944C202.563 17.7846 204.611 19.8568 205.933 22.3989L200.788 27.3174Z" fill="#F0F0F0"/>
<path d="M195.771 22.071C195.737 22.0338 196.904 20.8506 198.378 19.4275C199.851 18.0043 201.082 16.8786 201.106 16.9124C201.129 16.9462 199.973 18.1294 198.499 19.5559C197.025 20.9825 195.805 22.1048 195.771 22.071Z" fill="#263238"/>
<path d="M196.921 23.271C197.161 22.9872 197.423 22.7227 197.705 22.48C198.202 22.0068 198.898 21.3611 199.672 20.6512L201.663 18.8494L202.269 18.3086C202.414 18.1801 202.485 18.1159 202.495 18.1125C202.559 18.1767 201.339 19.37 199.791 20.783C199.017 21.4895 198.307 22.1352 197.786 22.5713C197.516 22.8269 197.227 23.0609 196.921 23.271Z" fill="#263238"/>
<path d="M198.448 24.87C198.692 24.5834 198.957 24.3167 199.243 24.0722C199.747 23.5956 200.453 22.9465 201.241 22.2366L203.269 20.4315L203.888 19.8906C203.963 19.8234 204.042 19.7602 204.124 19.7013C203.901 20.0046 203.642 20.2804 203.354 20.5227C202.853 21.0061 202.147 21.6586 201.362 22.3685C200.578 23.0784 199.855 23.7206 199.334 24.1669C199.057 24.4236 198.761 24.6587 198.448 24.87Z" fill="#263238"/>
<path d="M199.879 26.327C199.845 26.2898 201.028 25.1168 202.519 23.7004C204.01 22.284 205.247 21.1684 205.281 21.2056C205.314 21.2428 204.131 22.4158 202.64 23.8288C201.15 25.2419 199.912 26.3574 199.879 26.327Z" fill="#263238"/>
<path d="M173.66 9.69861H168.65V17.5176H173.66V9.69861Z" fill="#263238"/>
<path d="M176.337 12.0378H166.027V3.61041C169.641 2.71798 173.089 2.66389 176.347 3.61041L176.337 12.0378Z" fill="#F0F0F0"/>
<path d="M176.469 3.64421C176.348 3.71977 176.22 3.78319 176.087 3.83352C175.734 3.98897 175.371 4.12219 175.002 4.23241C174.448 4.40299 173.883 4.53625 173.312 4.6313C172.617 4.74151 171.915 4.80027 171.212 4.80708C170.51 4.80813 169.808 4.75614 169.113 4.65158C168.542 4.56295 167.977 4.43533 167.423 4.26959C167.053 4.1613 166.689 4.0315 166.334 3.88084C166.2 3.8343 166.072 3.77188 165.952 3.69492C165.952 3.66449 166.52 3.89774 167.457 4.1479C168.006 4.29313 168.564 4.40601 169.127 4.48594C169.815 4.57902 170.508 4.62645 171.202 4.62792C171.897 4.62002 172.59 4.56581 173.278 4.46566C173.838 4.38461 174.393 4.27175 174.941 4.12762C175.901 3.8538 176.455 3.61379 176.469 3.64421Z" fill="#263238"/>
<path d="M169.434 12.0142C169.387 12.0142 169.346 10.395 169.346 8.40049C169.346 6.40603 169.387 4.7868 169.434 4.7868C169.482 4.7868 169.522 6.40265 169.522 8.40049C169.522 10.3983 169.485 12.0142 169.434 12.0142Z" fill="#263238"/>
<path d="M171.398 12.0615C171.351 12.0615 171.31 10.4355 171.31 8.43092C171.31 6.42632 171.351 4.80371 171.398 4.80371C171.446 4.80371 171.486 6.42632 171.486 8.43092C171.486 10.4355 171.449 12.0615 171.398 12.0615Z" fill="#263238"/>
<path d="M173.362 12.0311C173.315 12.0311 173.274 10.4051 173.274 8.40049C173.274 6.39589 173.315 4.7699 173.362 4.7699C173.41 4.7699 173.45 6.39589 173.45 8.40049C173.45 10.4051 173.413 12.0311 173.362 12.0311Z" fill="#263238"/>
<path d="M174.985 12.0311C174.934 12.0311 174.897 10.2733 174.897 8.10639C174.897 5.93953 174.934 4.1817 174.985 4.1817C175.036 4.1817 175.073 5.93953 175.073 8.10639C175.073 10.2733 175.046 12.0311 174.985 12.0311Z" fill="#263238"/>
<path d="M167.578 11.9804C167.531 11.9804 167.49 10.2225 167.49 8.05567C167.49 5.88881 167.531 4.13098 167.578 4.13098C167.626 4.13098 167.666 5.88881 167.666 8.05567C167.666 10.2225 167.629 11.9804 167.578 11.9804Z" fill="#263238"/>
<path d="M196.325 77.3248C210.56 63.0897 210.56 40.01 196.325 25.7749C182.089 11.5398 159.01 11.5398 144.775 25.7749C130.54 40.01 130.54 63.0897 144.775 77.3248C159.01 91.5599 182.089 91.5599 196.325 77.3248Z" fill="#D0D0D0"/>
<path d="M170.55 81.8743C187.457 81.8743 201.163 68.1683 201.163 51.2611C201.163 34.3538 187.457 20.6478 170.55 20.6478C153.643 20.6478 139.937 34.3538 139.937 51.2611C139.937 68.1683 153.643 81.8743 170.55 81.8743Z" fill="#FAFAFA"/>
<path d="M201.163 51.2611C201.163 51.2611 201.163 51.0955 201.139 50.7676C201.116 50.4397 201.139 49.9495 201.075 49.3106C200.955 47.4465 200.663 45.5975 200.203 43.7869C199.872 42.4802 199.453 41.1972 198.949 39.9468C198.357 38.456 197.644 37.0157 196.819 35.6401C194.8 32.2795 192.162 29.3325 189.044 26.9557C185.26 24.0768 180.855 22.1228 176.182 21.2496C172.22 20.5207 168.155 20.5677 164.211 21.3882C162.827 21.6888 161.463 22.0783 160.128 22.5544C154.448 24.6234 149.508 28.3273 145.93 33.1994C144.996 34.4682 144.164 35.8088 143.442 37.2086C143.067 37.9084 142.746 38.6352 142.428 39.3653C142.11 40.0955 141.826 40.8527 141.586 41.6235C141.067 43.1658 140.678 44.7489 140.423 46.3561C140.167 47.981 140.032 49.6229 140.021 51.2679C140.033 52.9138 140.166 54.5567 140.42 56.183C140.679 57.7894 141.068 59.3722 141.583 60.9156C141.826 61.683 142.13 62.4267 142.425 63.1704C142.719 63.9141 143.074 64.6307 143.439 65.3305C144.161 66.7311 144.994 68.0718 145.93 69.3397C149.507 74.2135 154.447 77.9187 160.128 79.9881C161.463 80.4642 162.827 80.8537 164.211 81.1543C165.562 81.4365 166.929 81.6273 168.305 81.7256C170.938 81.9247 173.586 81.7792 176.182 81.2929C180.855 80.4197 185.26 78.4656 189.044 75.5867C192.163 73.2109 194.801 70.2638 196.819 66.9024C197.644 65.5265 198.356 64.0862 198.949 62.5957C200.15 59.6069 200.867 56.4461 201.075 53.2319C201.133 52.593 201.122 52.1028 201.139 51.7749C201.156 51.447 201.163 51.278 201.163 51.278C201.163 51.278 201.163 51.447 201.163 51.7749C201.163 52.1028 201.163 52.593 201.116 53.2319C200.931 56.4552 200.226 59.6274 199.03 62.6261C198.441 64.1238 197.731 65.5709 196.907 66.9531C194.893 70.3307 192.254 73.294 189.132 75.6848C185.335 78.5812 180.912 80.5492 176.219 81.4315C173.612 81.9242 170.951 82.0742 168.305 81.8777C166.923 81.7797 165.548 81.5888 164.191 81.3064C162.798 81.0068 161.426 80.6161 160.084 80.1368C154.371 78.06 149.401 74.337 145.802 69.4377C144.862 68.163 144.026 66.8156 143.3 65.4082C142.921 64.7051 142.597 63.9682 142.266 63.2346C141.934 62.5011 141.664 61.7405 141.421 60.9663C140.902 59.4165 140.511 57.8269 140.251 56.2134C139.715 52.9405 139.715 49.602 140.251 46.329C140.512 44.7225 140.903 43.1397 141.421 41.5964C141.667 40.8223 141.972 40.0752 142.269 39.3281C142.567 38.5811 142.921 37.861 143.3 37.1579C144.028 35.7512 144.866 34.4039 145.805 33.1284C149.402 28.2298 154.371 24.5077 160.084 22.4327C161.425 21.9539 162.796 21.5632 164.188 21.2631C165.546 20.9809 166.922 20.7901 168.305 20.6918C170.95 20.4953 173.609 20.6453 176.215 21.138C180.91 22.0165 185.333 23.9848 189.129 26.8848C192.251 29.277 194.889 32.2414 196.904 35.6198C198.418 38.17 199.556 40.9253 200.284 43.8005C200.735 45.6174 201.017 47.4721 201.126 49.341C201.177 49.9799 201.16 50.4701 201.173 50.798C201.187 51.1259 201.163 51.2611 201.163 51.2611Z" fill="#263238"/>
<path d="M196.67 50.1523C195.7 50.1929 194.909 50.1523 194.906 50.0678C194.902 49.9833 195.683 49.8684 196.653 49.8143C197.624 49.7602 198.415 49.794 198.421 49.8954C198.428 49.9968 197.634 50.1118 196.67 50.1523Z" fill="#263238"/>
<path d="M196.018 57.2005C195.072 56.9774 194.328 56.7306 194.328 56.6461C194.328 56.5616 195.132 56.663 196.082 56.8692C197.032 57.0754 197.773 57.3256 197.773 57.4236C197.773 57.5216 196.958 57.4202 196.018 57.2005Z" fill="#263238"/>
<path d="M193.493 63.8093C192.638 63.3428 191.982 62.9 192.022 62.8256C192.063 62.7512 192.793 63.0589 193.652 63.5017C194.51 63.9445 195.169 64.4009 195.122 64.4888C195.075 64.5767 194.345 64.2792 193.493 63.8093Z" fill="#263238"/>
<path d="M189.284 69.5019C188.588 68.8258 188.071 68.2241 188.132 68.1497C188.192 68.0754 188.808 68.5791 189.518 69.2484C190.227 69.9177 190.738 70.5161 190.67 70.6006C190.603 70.6851 189.977 70.1814 189.284 69.5019Z" fill="#263238"/>
<path d="M183.707 73.8627C183.22 73.021 182.882 72.3043 182.956 72.2604C183.03 72.2164 183.497 72.8587 183.997 73.6903C184.498 74.5219 184.836 75.2385 184.751 75.2926C184.667 75.3467 184.197 74.6977 183.707 73.8627Z" fill="#263238"/>
<path d="M177.165 76.5637C176.922 75.6205 176.79 74.8397 176.875 74.8194C176.959 74.7991 177.233 75.5394 177.493 76.4758C177.754 77.4122 177.882 78.1931 177.784 78.2201C177.686 78.2472 177.409 77.5034 177.165 76.5637Z" fill="#263238"/>
<path d="M170.137 77.402C170.137 76.4284 170.235 75.6408 170.32 75.6408C170.404 75.6408 170.475 76.4318 170.475 77.402C170.475 78.3722 170.391 79.1632 170.293 79.1632C170.195 79.1632 170.121 78.379 170.137 77.402Z" fill="#263238"/>
<path d="M163.153 76.3439C163.43 75.4109 163.721 74.6774 163.806 74.7011C163.89 74.7247 163.741 75.5022 163.468 76.4386C163.194 77.375 162.913 78.1288 162.815 78.0815C162.717 78.0342 162.859 77.2769 163.153 76.3439Z" fill="#263238"/>
<path d="M156.687 73.4334C157.204 72.612 157.68 71.9798 157.755 72.0238C157.829 72.0677 157.478 72.781 156.974 73.6126C156.47 74.4442 155.99 75.0729 155.906 75.0222C155.821 74.9715 156.169 74.2582 156.687 73.4334Z" fill="#263238"/>
<path d="M151.247 68.9036C151.967 68.2478 152.6 67.7678 152.654 67.832C152.708 67.8962 152.187 68.4844 151.477 69.1504C150.767 69.8163 150.142 70.2963 150.071 70.2253C150 70.1544 150.531 69.5594 151.247 68.9036Z" fill="#263238"/>
<path d="M147.218 63.0825C148.087 62.6464 148.824 62.3523 148.861 62.4267C148.898 62.501 148.236 62.9303 147.374 63.3833C146.512 63.8363 145.778 64.1304 145.731 64.0391C145.683 63.9479 146.353 63.5219 147.218 63.0825Z" fill="#263238"/>
<path d="M144.899 56.396C145.856 56.2067 146.643 56.1222 146.66 56.2067C146.677 56.2912 145.92 56.5244 144.97 56.7272C144.02 56.9301 143.229 57.0146 143.209 56.9166C143.189 56.8185 143.953 56.5853 144.899 56.396Z" fill="#263238"/>
<path d="M144.47 49.3444C145.44 49.4153 146.221 49.5438 146.217 49.6283C146.214 49.7128 145.42 49.7365 144.449 49.679C143.479 49.6216 142.695 49.4965 142.702 49.3951C142.708 49.2936 143.499 49.2565 144.47 49.3444Z" fill="#263238"/>
<path d="M145.94 42.4043C146.856 42.7424 147.573 43.0804 147.546 43.1514C147.519 43.2224 146.748 43.0399 145.829 42.7221C144.909 42.4043 144.192 42.0731 144.223 41.9784C144.253 41.8838 145.027 42.0731 145.94 42.4043Z" fill="#263238"/>
<path d="M149.223 36.1336C150.014 36.6981 150.615 37.212 150.575 37.283C150.534 37.354 149.838 36.9618 149.037 36.4108C148.236 35.8598 147.634 35.346 147.685 35.2615C147.735 35.1769 148.428 35.5691 149.223 36.1336Z" fill="#263238"/>
<path d="M154.06 30.9683C154.672 31.7221 155.115 32.3779 155.051 32.4354C154.986 32.4929 154.422 31.9283 153.8 31.1813C153.178 30.4342 152.732 29.7818 152.809 29.7175C152.887 29.6533 153.448 30.2145 154.06 30.9683Z" fill="#263238"/>
<path d="M160.111 27.2836C160.496 28.1761 160.75 28.9265 160.669 28.9739C160.588 29.0212 160.202 28.3181 159.803 27.4324C159.405 26.5467 159.151 25.7963 159.242 25.7422C159.334 25.6881 159.716 26.3946 160.111 27.2836Z" fill="#263238"/>
<path d="M166.919 25.3669C167.051 26.3303 167.092 27.1214 167.004 27.1349C166.916 27.1484 166.73 26.3777 166.585 25.4176C166.439 24.4576 166.399 23.6632 166.497 23.6497C166.595 23.6361 166.787 24.4035 166.919 25.3669Z" fill="#263238"/>
<path d="M173.998 25.3433C173.87 26.3067 173.697 27.0808 173.613 27.0707C173.528 27.0605 173.548 26.2661 173.663 25.3027C173.778 24.3393 173.951 23.5618 174.049 23.5753C174.147 23.5888 174.126 24.3765 173.998 25.3433Z" fill="#263238"/>
<path d="M180.823 27.2126C180.441 28.1085 180.066 28.8048 179.985 28.771C179.903 28.7372 180.143 27.9834 180.512 27.0808C180.88 26.1782 181.259 25.4852 181.35 25.5258C181.442 25.5664 181.208 26.3202 180.823 27.2126Z" fill="#263238"/>
<path d="M186.894 30.8534C186.286 31.614 185.738 32.1853 185.671 32.1312C185.603 32.0771 186.032 31.4112 186.631 30.6438C187.229 29.8764 187.773 29.2916 187.854 29.3694C187.935 29.4471 187.493 30.0962 186.894 30.8534Z" fill="#263238"/>
<path d="M191.772 35.9849C190.981 36.5528 190.302 36.9585 190.251 36.8875C190.2 36.8165 190.792 36.2925 191.573 35.7111C192.354 35.1296 193.033 34.7274 193.094 34.8085C193.155 34.8896 192.563 35.417 191.772 35.9849Z" fill="#263238"/>
<path d="M195.095 42.2454C194.182 42.5835 193.405 42.7829 193.385 42.7052C193.364 42.6274 194.061 42.2759 194.977 41.9277C195.893 41.5795 196.647 41.3733 196.684 41.4679C196.721 41.5626 196.008 41.9074 195.095 42.2454Z" fill="#263238"/>
<path d="M196.62 49.1483C195.65 49.2261 194.859 49.2193 194.852 49.1483C194.845 49.0773 195.623 48.9218 196.589 48.8103C197.556 48.6987 198.351 48.7258 198.357 48.8272C198.364 48.9286 197.58 49.0706 196.62 49.1483Z" fill="#263238"/>
<path d="M158.661 18.1429L158.556 18.1903L158.245 18.3153C157.975 18.4303 157.569 18.5689 157.052 18.7954C155.594 19.4046 154.179 20.1104 152.816 20.9081C151.951 21.4084 151.035 22.0068 150.071 22.6795C149.108 23.3522 148.124 24.1365 147.14 25.0188C142.821 28.8256 139.522 33.6515 137.543 39.0577C137.08 40.295 136.732 41.5052 136.431 42.6376C136.13 43.7701 135.927 44.8518 135.775 45.8389C135.528 47.3985 135.385 48.9727 135.346 50.5512C135.319 51.1124 135.346 51.5451 135.346 51.8392C135.346 51.9811 135.346 52.0893 135.346 52.1772C135.349 52.2155 135.349 52.2539 135.346 52.2921C135.342 52.2551 135.342 52.2176 135.346 52.1806C135.346 52.0961 135.346 51.9845 135.346 51.8425C135.346 51.5484 135.309 51.1157 135.326 50.5546C135.338 48.9701 135.463 47.3886 135.701 45.822C135.843 44.8281 136.063 43.7498 136.336 42.6038C136.642 41.3857 137.01 40.184 137.438 39.0036C139.408 33.5612 142.726 28.7075 147.083 24.8971C148.073 24.0148 149.081 23.2542 150.034 22.5612C150.987 21.8682 151.927 21.2935 152.803 20.8C154.175 20.0105 155.602 19.3191 157.072 18.7311C157.589 18.5148 158.005 18.3931 158.282 18.2815L158.6 18.1734C158.62 18.1618 158.64 18.1516 158.661 18.1429Z" fill="white"/>
<path d="M168.836 16.1688C168.488 16.241 168.136 16.2873 167.781 16.3074C167.125 16.375 166.226 16.473 165.232 16.6015C164.238 16.7299 163.343 16.8651 162.694 16.9666C162.346 17.038 161.993 17.0832 161.639 17.1018C161.975 16.9846 162.321 16.8986 162.673 16.8449C163.319 16.713 164.215 16.5575 165.209 16.4291C166.203 16.3006 167.112 16.2195 167.771 16.1823C168.125 16.1445 168.481 16.14 168.836 16.1688Z" fill="white"/>
<g opacity="0.4">
<path opacity="0.4" d="M146.082 69.6642C146.082 69.6642 161.947 94.6997 186.556 81.8777C212.248 68.4912 198.05 37.8069 198.05 37.8069C198.05 37.8069 210.138 62.261 185.096 78.2032C178.859 82.1752 172.068 82.1786 166.889 81.658C153.654 80.3329 146.082 69.6642 146.082 69.6642Z" fill="black"/>
</g>
<path d="M179.082 34.991C179.234 39.4809 179.099 43.976 178.677 48.4486C178.521 50.0678 178.338 51.7039 177.713 53.2082C177.088 54.7125 176.023 56.0917 174.522 56.7272C173.021 57.3628 171.101 57.0991 170.056 55.8551L179.082 34.991Z" fill="#E0E0E0"/>
<path d="M169.884 48.8474L181.009 30.113L174.295 51.2644L170.864 52.2887L169.884 48.8474Z" fill="#5F5B9F"/>
<g opacity="0.4">
<path opacity="0.4" d="M181.009 30.113L172.757 49.2565L174.295 51.2644L181.009 30.113Z" fill="black"/>
</g>
<path d="M170.864 55.8686C172.841 55.8686 174.444 54.2659 174.444 52.2888C174.444 50.3116 172.841 48.7089 170.864 48.7089C168.887 48.7089 167.284 50.3116 167.284 52.2888C167.284 54.2659 168.887 55.8686 170.864 55.8686Z" fill="#FAFAFA"/>
<path d="M174.444 52.2888C174.412 51.9978 174.363 51.7089 174.299 51.4234C174.091 50.6524 173.632 49.9729 172.994 49.4931C172.525 49.1404 171.975 48.9107 171.395 48.8251C170.814 48.7395 170.222 48.8006 169.671 49.003C169.354 49.1152 169.056 49.276 168.789 49.4796C168.504 49.6863 168.254 49.9374 168.048 50.2233C167.609 50.8223 167.372 51.5459 167.372 52.2888C167.372 53.0317 167.609 53.7552 168.048 54.3542C168.459 54.9111 169.023 55.3364 169.671 55.5779C170.133 55.7476 170.626 55.8187 171.118 55.7866C171.61 55.7546 172.089 55.6202 172.526 55.392C172.963 55.1638 173.347 54.8468 173.654 54.4615C173.961 54.0761 174.184 53.6308 174.309 53.1542C174.374 52.8688 174.423 52.5798 174.454 52.2888C174.475 52.5851 174.449 52.8829 174.376 53.1711C174.192 53.9771 173.733 54.694 173.078 55.1993C172.63 55.5477 172.105 55.7851 171.547 55.8923C170.905 56.015 170.242 55.9636 169.627 55.7436C169.293 55.6282 168.979 55.4605 168.697 55.2467C168.398 55.0306 168.136 54.7681 167.92 54.4691C167.454 53.8426 167.203 53.0828 167.203 52.3023C167.203 51.5218 167.454 50.762 167.92 50.1354C168.137 49.8373 168.399 49.5749 168.697 49.3579C168.98 49.1471 169.294 48.9807 169.627 48.8644C170.242 48.6427 170.905 48.5913 171.547 48.7156C172.229 48.8467 172.858 49.1715 173.36 49.6511C173.862 50.1308 174.215 50.7449 174.376 51.42C174.444 51.7043 174.467 51.9974 174.444 52.2888Z" fill="#263238"/>
<path d="M173.487 52.8254C173.778 51.3834 172.846 49.9781 171.404 49.6866C169.962 49.395 168.556 50.3277 168.265 51.7697C167.973 53.2116 168.906 54.617 170.348 54.9085C171.79 55.2 173.195 54.2674 173.487 52.8254Z" fill="#455A64"/>
<path d="M142.998 138.072H160.61L152.399 67.306L142.998 138.072Z" fill="#E0E0E0"/>
<path d="M56.3371 67.306L44.8706 138.907L142.717 140.182L152.399 67.306H56.3371Z" fill="#FAFAFA"/>
<path d="M148.042 100.106H51.084L53.1934 86.9227H149.793L148.042 100.106Z" fill="#EBEBEB"/>
<path d="M148.048 100.117H51.0737L53.1865 86.9329H149.803L148.048 100.117ZM51.094 100.1H148.035L149.783 86.916H53.2034L51.094 100.1Z" fill="#263238"/>
<path d="M56.3372 67.306L53.1934 86.9227H149.793L152.399 67.306H56.3372Z" fill="#A8A8A8"/>
<path d="M56.3507 67.306L152.413 67.2249H152.504V67.3161C149.674 88.6501 146.463 112.844 143.069 138.397V138.474H141.893L44.9518 138.447H44.8572V138.363L56.3507 67.306C56.256 67.8942 51.8885 95.3467 45.0363 138.397L44.9654 138.312H141.869H142.968L142.883 138.386C146.281 112.834 149.499 88.6433 152.348 67.3094L152.426 67.3973L56.3507 67.306Z" fill="#263238"/>
<path d="M149.793 86.9227C149.793 86.97 128.158 87.0106 101.496 87.0106C74.8349 87.0106 53.1934 86.97 53.1934 86.9227C53.1934 86.8754 74.8282 86.8348 101.496 86.8348C128.165 86.8348 149.793 86.872 149.793 86.9227Z" fill="#263238"/>
<path d="M148.042 100.106C148.042 100.157 126.292 100.194 99.4715 100.194C72.6511 100.194 50.8979 100.157 50.8979 100.106C50.8979 100.056 72.6409 100.019 99.4715 100.019C126.302 100.019 148.042 100.059 148.042 100.106Z" fill="#263238"/>
<path d="M146.067 112.239C146.067 112.29 124.321 112.327 97.5006 112.327C70.6802 112.327 48.9136 112.29 48.9136 112.239C48.9136 112.188 70.6566 112.151 97.4871 112.151C124.318 112.151 146.067 112.192 146.067 112.239Z" fill="#263238"/>
<path d="M144.097 124.371C144.097 124.419 122.347 124.459 95.5267 124.459C68.7063 124.459 46.9531 124.419 46.9531 124.371C46.9531 124.324 68.6961 124.283 95.5267 124.283C122.357 124.283 144.097 124.324 144.097 124.371Z" fill="#263238"/>
<path d="M58.6054 138.495C58.5581 138.495 60.3328 126.934 62.5741 112.695C64.8153 98.4567 66.6644 86.9125 66.7117 86.9227C66.759 86.9328 64.9843 98.477 62.7465 112.722C60.5086 126.967 58.6561 138.501 58.6054 138.495Z" fill="#263238"/>
<path d="M73.5572 138.495C73.5065 138.495 75.2846 126.934 77.5225 112.695C79.7603 98.4567 81.6128 86.9125 81.6635 86.9227C81.7142 86.9328 79.9361 98.477 77.6949 112.722C75.4536 126.967 73.591 138.501 73.5572 138.495Z" fill="#263238"/>
<path d="M87.4506 137.977C87.4033 137.977 89.1611 126.535 91.3753 112.438C93.5895 98.3418 95.4319 86.9125 95.4758 86.9227C95.5197 86.9328 93.7653 98.3621 91.5511 112.465C89.3369 126.568 87.4946 137.984 87.4506 137.977Z" fill="#263238"/>
<path d="M101.192 138.386C101.145 138.386 102.916 126.849 105.151 112.641C107.385 98.4331 109.234 86.9125 109.281 86.9227C109.329 86.9328 107.557 98.4534 105.323 112.668C103.089 126.883 101.239 138.393 101.192 138.386Z" fill="#263238"/>
<path d="M115.001 138.386C114.954 138.386 116.725 126.849 118.96 112.641C121.194 98.4331 123.043 86.9125 123.091 86.9227C123.138 86.9328 121.37 98.4534 119.135 112.668C116.901 126.883 115.052 138.393 115.001 138.386Z" fill="#263238"/>
<path d="M128.8 138.447C128.753 138.447 130.528 126.896 132.765 112.665C135.003 98.4331 136.852 86.899 136.903 86.9092C136.954 86.9193 135.176 98.4568 132.938 112.692C130.7 126.927 128.848 138.468 128.8 138.447Z" fill="#263238"/>
<g opacity="0.2">
<path opacity="0.2" d="M120.113 87.8422C121.776 87.1052 122.817 85.3744 123.246 83.6065C123.676 81.8385 123.608 79.9928 123.672 78.1707C123.736 76.3487 123.953 74.4725 124.882 72.9074C125.433 71.9845 126.207 71.2172 126.819 70.3281C127.431 69.439 127.884 68.3573 127.658 67.2857L117.253 67.3398L120.113 87.8422Z" fill="black"/>
</g>
<path d="M76.9714 101.083C76.9437 101.129 76.9095 101.17 76.87 101.205L76.559 101.543C76.2852 101.824 75.8829 102.219 75.3759 102.713C74.3617 103.686 72.9521 105.011 71.3464 106.431C69.7407 107.851 68.2533 109.088 67.1614 109.967C66.6138 110.407 66.1675 110.758 65.8565 110.981L65.4948 111.252C65.4546 111.287 65.4089 111.315 65.3596 111.336C65.3596 111.336 65.3968 111.292 65.4712 111.225L65.8092 110.927L67.0769 109.856C68.1519 108.953 69.6257 107.699 71.2281 106.286C72.8304 104.873 74.2705 103.561 75.2846 102.611L76.5049 101.486L76.843 101.185C76.8813 101.146 76.9245 101.112 76.9714 101.083Z" fill="#263238"/>
<path d="M76.1905 111.471C76.0469 111.346 75.9125 111.21 75.7882 111.066L74.7302 109.937C73.8174 108.967 72.5937 107.662 71.2449 106.218L67.7225 102.534L66.6543 101.415C66.5195 101.282 66.3941 101.139 66.2791 100.989C66.4322 101.102 66.5747 101.229 66.705 101.367C66.9687 101.617 67.3473 101.986 67.8104 102.446C68.7366 103.365 70.0009 104.653 71.37 106.1C72.7391 107.547 73.956 108.879 74.8214 109.856C75.2541 110.342 75.6023 110.741 75.8356 111.018C75.9675 111.158 76.0864 111.31 76.1905 111.471Z" fill="#263238"/>
<path d="M79.8008 104.19C79.8008 104.19 79.8346 104.102 79.9056 103.93C80.0177 103.68 80.1536 103.441 80.3113 103.216C80.9329 102.348 81.8096 101.695 82.8195 101.347C83.543 101.085 84.3146 100.984 85.0811 101.05C85.9938 101.138 86.8733 101.438 87.6502 101.925C88.5472 102.478 89.3048 103.23 89.8644 104.122C90.5117 105.119 90.8341 106.292 90.7872 107.479C90.7484 108.12 90.5497 108.74 90.2092 109.284C89.8524 109.848 89.3772 110.328 88.8165 110.691C87.6224 111.456 86.2166 111.824 84.8005 111.742C84.0588 111.702 83.3284 111.543 82.637 111.272C81.9177 110.991 81.2707 110.552 80.744 109.987C80.4823 109.69 80.2617 109.36 80.0882 109.004C79.9229 108.64 79.8091 108.256 79.7501 107.861C79.6379 107.052 79.7083 106.229 79.9563 105.451C80.4732 103.829 81.5939 102.467 83.0866 101.648C83.8604 101.223 84.7214 100.981 85.6033 100.94C86.4852 100.9 87.3647 101.062 88.1742 101.415C89.0128 101.768 89.7471 102.33 90.3072 103.047C90.8681 103.784 91.2186 104.659 91.3214 105.579C91.4384 106.513 91.2871 107.46 90.8853 108.311C90.6789 108.738 90.4075 109.13 90.0807 109.474C89.7483 109.812 89.3733 110.107 88.9652 110.349C88.142 110.803 87.2342 111.081 86.2984 111.169C85.3626 111.256 84.4189 111.15 83.5261 110.856C82.6469 110.586 81.8387 110.124 81.1598 109.504C80.4865 108.883 80.0263 108.066 79.8448 107.168C79.6543 106.286 79.7799 105.364 80.1997 104.565C80.4126 104.171 80.705 103.826 81.0583 103.551C81.4062 103.289 81.7944 103.084 82.2077 102.946C83.0195 102.686 83.871 102.571 84.7227 102.608C85.552 102.614 86.377 102.728 87.1769 102.946C87.9678 103.154 88.6986 103.545 89.31 104.089C89.8957 104.635 90.2953 105.352 90.4526 106.137C90.6078 106.896 90.5624 107.683 90.3207 108.419C90.0815 109.129 89.6772 109.772 89.141 110.295C88.1227 111.291 86.7741 111.878 85.3515 111.945C84.6856 111.98 84.0194 111.883 83.3908 111.661C82.7875 111.444 82.2449 111.086 81.8088 110.616C81.396 110.168 81.0837 109.637 80.8927 109.058C80.7044 108.515 80.6207 107.942 80.6459 107.368C80.6942 106.305 81.1182 105.294 81.8426 104.514C82.4619 103.837 83.2455 103.33 84.1176 103.044C84.8497 102.805 85.6254 102.732 86.3893 102.828C87.445 102.959 88.4482 103.363 89.2999 104.001C89.521 104.163 89.73 104.342 89.9252 104.535C90.0571 104.667 90.1213 104.738 90.1213 104.738C90.1213 104.738 90.0469 104.673 89.9151 104.548C89.7142 104.362 89.502 104.188 89.2796 104.028C88.4264 103.409 87.429 103.019 86.3825 102.895C85.5573 102.8 84.7212 102.903 83.9443 103.197C83.1673 103.492 82.4721 103.967 81.917 104.585C81.2114 105.348 80.8003 106.336 80.7575 107.374C80.7346 107.937 80.8183 108.499 81.0043 109.031C81.1927 109.592 81.498 110.107 81.9001 110.542C82.3237 110.997 82.8499 111.345 83.4348 111.556C84.0479 111.769 84.6966 111.861 85.3447 111.826C86.7332 111.758 88.0482 111.182 89.0396 110.207C89.5575 109.701 89.9479 109.079 90.1788 108.392C90.4101 107.68 90.4521 106.921 90.3005 106.188C90.1483 105.434 89.7641 104.746 89.2018 104.22C88.607 103.698 87.8988 103.32 87.133 103.118C86.3462 102.903 85.5351 102.789 84.7194 102.78C83.8878 102.749 83.0572 102.863 82.2652 103.118C81.4572 103.366 80.7733 103.911 80.3518 104.643C79.9516 105.407 79.832 106.288 80.0138 107.131C80.189 107.993 80.6328 108.778 81.2815 109.372C81.9391 109.98 82.7246 110.433 83.5801 110.697C84.4491 110.983 85.3676 111.087 86.2785 111.002C87.1893 110.917 88.0728 110.645 88.8739 110.204C89.2695 109.972 89.6322 109.687 89.9523 109.359C90.2661 109.029 90.5272 108.653 90.7264 108.243C91.1154 107.422 91.262 106.508 91.149 105.606C91.0523 104.718 90.7171 103.872 90.1788 103.159C89.6372 102.466 88.9274 101.922 88.1167 101.58C87.3313 101.237 86.4776 101.079 85.6213 101.117C84.7651 101.156 83.9292 101.391 83.1779 101.803C81.7272 102.602 80.6382 103.927 80.1355 105.505C79.8945 106.26 79.8241 107.059 79.9293 107.844C79.9901 108.226 80.1039 108.596 80.2673 108.946C80.4346 109.288 80.646 109.606 80.8961 109.893C81.4059 110.439 82.0321 110.865 82.7283 111.137C83.4043 111.404 84.1187 111.562 84.8444 111.603C86.2301 111.688 87.6072 111.333 88.7793 110.589C89.321 110.258 89.7772 109.803 90.1113 109.263C90.4454 108.723 90.648 108.112 90.7027 107.479C90.7499 106.318 90.4371 105.17 89.8069 104.193C89.2599 103.312 88.5173 102.568 87.6367 102.02C86.8738 101.537 86.0095 101.237 85.1115 101.144C84.3565 101.073 83.5949 101.167 82.8804 101.421C81.8795 101.76 81.0064 102.397 80.3789 103.247C80.217 103.467 80.0767 103.703 79.9597 103.95C79.8448 104.105 79.8008 104.19 79.8008 104.19Z" fill="#5F5B9F"/>
<path d="M88.9584 113.523C88.9888 113.561 86.3081 115.852 82.9682 118.645C79.6283 121.437 76.8834 123.665 76.8632 123.627C76.8429 123.59 79.5134 121.298 82.8533 118.509C86.1932 115.721 88.9279 113.486 88.9584 113.523Z" fill="#263238"/>
<path d="M89.5432 123.327C89.3841 123.233 89.2336 123.126 89.0936 123.006L87.9036 122.079C86.9064 121.288 85.5373 120.186 84.0297 118.962C82.522 117.739 81.1664 116.623 80.1895 115.809L79.0368 114.835C78.8907 114.723 78.7549 114.599 78.6311 114.463C78.7895 114.558 78.9398 114.665 79.0807 114.784L80.2672 115.711C81.2645 116.502 82.6335 117.604 84.1412 118.827C85.6489 120.051 87.0044 121.167 87.9848 121.981L89.1341 122.951C89.2793 123.066 89.416 123.192 89.5432 123.327Z" fill="#263238"/>
<path d="M117.178 113.655C117.205 113.692 114.643 115.656 111.448 118.05C108.254 120.443 105.644 122.333 105.614 122.292C105.583 122.252 108.149 120.291 111.344 117.898C114.538 115.504 117.148 113.615 117.178 113.655Z" fill="#263238"/>
<path d="M118.172 121.971C118.148 122.012 115.424 120.325 112.087 118.199C108.751 116.072 106.077 114.321 106.1 114.277C106.124 114.233 108.849 115.927 112.185 118.05C115.522 120.173 118.213 121.931 118.172 121.971Z" fill="#263238"/>
<path d="M89.3978 138.39C89.3607 138.356 92.0244 135.564 95.344 132.16C98.6636 128.756 101.385 126.014 101.429 126.048C101.473 126.082 98.8022 128.874 95.4826 132.281C92.163 135.689 89.4316 138.424 89.3978 138.39Z" fill="#5F5B9F"/>
<path d="M100.658 138.387C100.658 138.387 100.614 138.349 100.546 138.268L100.262 137.93C99.9988 137.592 99.6472 137.156 99.2179 136.622C98.3356 135.52 97.0848 134.022 95.6346 132.43C94.1844 130.838 92.8086 129.455 91.7945 128.475L90.591 127.292L90.253 126.974C90.2139 126.939 90.1788 126.899 90.1482 126.856C90.1482 126.856 90.1989 126.883 90.2766 126.947L90.6147 127.241C90.9155 127.498 91.3415 127.88 91.8621 128.36C92.8965 129.32 94.2892 130.693 95.7462 132.288C97.2032 133.884 98.4506 135.398 99.2957 136.521C99.7284 137.082 100.07 137.535 100.31 137.873L100.57 138.245C100.605 138.288 100.635 138.336 100.658 138.387Z" fill="#5F5B9F"/>
<path d="M72.9858 124.168C72.9858 124.168 73.0939 132.474 70.9981 137.447L58.2234 135.27C58.2234 135.27 62.0703 127.4 61.0224 123.026L72.9858 124.168Z" fill="#EBEBEB"/>
<path d="M72.9825 123.857C72.9825 123.857 71.3801 134.053 70.3998 137.095L57.7029 134.573C57.7029 134.573 60.316 124.716 60.2822 121.971L72.9825 123.857Z" fill="#5F5B9F"/>
<path d="M61.5701 126.541C61.5701 126.589 63.4564 127.028 65.8058 127.522C68.1552 128.015 70.0651 128.377 70.0753 128.333C70.0854 128.289 68.189 127.846 65.8396 127.353C63.4902 126.859 61.5802 126.494 61.5701 126.541Z" fill="white"/>
<path d="M61.2456 128.702C61.2456 128.749 63.1319 129.185 65.4813 129.682C67.8307 130.179 69.7407 130.537 69.7508 130.493C69.7609 130.449 67.8645 130.006 65.5151 129.513C63.1657 129.019 61.2557 128.644 61.2456 128.702Z" fill="white"/>
<path d="M63.1116 131.146C63.3281 131.24 63.5551 131.308 63.7877 131.348C64.2237 131.453 64.8288 131.592 65.4948 131.734C66.1607 131.876 66.7726 131.991 67.2154 132.072C67.452 132.131 67.695 132.161 67.9388 132.16C67.714 132.065 67.4793 131.996 67.2391 131.954C66.8064 131.845 66.2013 131.707 65.532 131.568C64.8626 131.43 64.2542 131.308 63.8147 131.23C63.5846 131.174 63.3485 131.145 63.1116 131.146Z" fill="white"/>
<path d="M133.425 100.847C133.425 100.847 134.733 108.94 133.408 114.101L120.616 113.828C120.616 113.828 123.233 105.586 121.573 101.465L133.425 100.847Z" fill="#EBEBEB"/>
<path d="M133.367 100.542C133.367 100.542 133.283 110.721 132.765 113.828L119.998 113.223C119.998 113.223 121.116 103.216 120.674 100.542H133.367Z" fill="#455A64"/>
<path d="M122.486 105.072C122.486 105.12 124.406 105.16 126.775 105.164C129.145 105.167 131.069 105.133 131.069 105.086C131.069 105.038 129.148 104.998 126.775 104.994C124.402 104.991 122.486 105.025 122.486 105.072Z" fill="white"/>
<path d="M122.607 107.226C122.607 107.273 124.527 107.314 126.897 107.317C129.267 107.32 131.19 107.286 131.19 107.239C131.19 107.192 129.27 107.151 126.897 107.148C124.524 107.144 122.607 107.178 122.607 107.226Z" fill="white"/>
<path d="M124.896 109.21C125.131 109.26 125.372 109.282 125.612 109.274C126.055 109.274 126.667 109.298 127.343 109.301C128.019 109.305 128.628 109.301 129.071 109.278C129.311 109.287 129.552 109.268 129.787 109.22C129.552 109.17 129.311 109.149 129.071 109.159C128.628 109.142 128.019 109.132 127.343 109.129C126.667 109.125 126.055 109.129 125.612 109.152C125.372 109.143 125.131 109.162 124.896 109.21Z" fill="white"/>
<path d="M136.129 77.5116C133.742 77.5116 131.339 76.014 130.075 73.6579C128.846 71.3116 128.465 68.6128 128.996 66.0181C129.696 62.6376 131.934 59.8657 134.699 58.98C137.049 58.2262 141.247 58.6419 143.228 61.9582C144.172 63.5798 144.64 65.4341 144.58 67.3094C144.571 67.4426 144.536 67.5727 144.477 67.6923C144.418 67.812 144.336 67.9188 144.235 68.0067C144.135 68.0946 144.018 68.1618 143.892 68.2046C143.765 68.2474 143.632 68.2648 143.498 68.2559C143.229 68.238 142.979 68.1139 142.801 67.9111C142.624 67.7082 142.534 67.4431 142.552 67.1742C142.57 65.7101 142.194 64.2681 141.463 62.9993C139.935 60.4471 136.585 60.4978 135.294 60.9102C132.928 61.6674 131.413 64.2264 130.957 66.4271C130.519 68.5576 130.83 70.7741 131.839 72.7012C132.836 74.5604 134.855 75.7165 136.643 75.4427C136.907 75.406 137.175 75.4746 137.388 75.6338C137.602 75.793 137.745 76.0299 137.785 76.2933C137.826 76.5568 137.761 76.8255 137.604 77.0415C137.448 77.2574 137.213 77.4032 136.95 77.4473C136.679 77.4895 136.404 77.5109 136.129 77.5116Z" fill="#263238"/>
<path d="M70.6566 77.5115C68.2667 77.5115 65.8665 76.014 64.6023 73.6578C63.3721 71.312 62.99 68.6132 63.5205 66.018C64.1121 63.1649 66.1133 59.8792 69.2673 58.9732C70.7879 58.5613 72.4001 58.643 73.8714 59.2065L73.1412 61.0995C72.0824 60.6971 70.9245 60.6345 69.8284 60.9203C67.5027 61.5964 65.9882 64.1723 65.5217 66.4271C65.0836 68.5576 65.3952 70.7741 66.404 72.7012C67.4013 74.5638 69.4228 75.7165 71.2076 75.4427L71.5152 77.4473C71.2312 77.4912 70.9441 77.5127 70.6566 77.5115Z" fill="#263238"/>
<path d="M135.294 67.3601L134.361 72.468H148.089L149.309 67.4108L135.294 67.3601Z" fill="#5F5B9F"/>
<path d="M74.1351 76.7036C74.1358 77.1358 74.0082 77.5585 73.7685 77.9181C73.5288 78.2778 73.1878 78.5582 72.7886 78.7239C72.3894 78.8896 71.9501 78.9331 71.5261 78.849C71.1022 78.7648 70.7128 78.5568 70.4072 78.2512C70.1016 77.9456 69.8935 77.5561 69.8094 77.1322C69.7252 76.7083 69.7687 76.2689 69.9345 75.8698C70.1002 75.4706 70.3806 75.1296 70.7402 74.8899C71.0998 74.6502 71.5225 74.5226 71.9547 74.5233C72.5327 74.5242 73.0868 74.7542 73.4955 75.1629C73.9042 75.5716 74.1342 76.1256 74.1351 76.7036Z" fill="#263238"/>
<path d="M139.55 76.7036C139.551 77.1358 139.423 77.5585 139.184 77.9181C138.944 78.2778 138.603 78.5582 138.204 78.7239C137.804 78.8896 137.365 78.9331 136.941 78.849C136.517 78.7648 136.128 78.5568 135.822 78.2512C135.517 77.9456 135.309 77.5561 135.224 77.1322C135.14 76.7083 135.184 76.2689 135.349 75.8698C135.515 75.4706 135.796 75.1296 136.155 74.8899C136.515 74.6502 136.938 74.5226 137.37 74.5233C137.948 74.5242 138.502 74.7542 138.911 75.1629C139.319 75.5716 139.549 76.1256 139.55 76.7036Z" fill="#263238"/>
<path d="M36.6101 123.16H14.4614V120.05H36.6101V123.16ZM14.5358 123.082H36.5357V120.124H14.5358V123.082Z" fill="#263238"/>
<path d="M16.5474 136.303L18.241 138.635H32.5301L34.5516 136.303H16.5474Z" fill="#455A64"/>
<path d="M24.7076 122.568C24.6637 122.568 24.6096 115.307 24.5826 106.342C24.5555 97.377 24.5826 90.1158 24.6164 90.1158C24.6502 90.1158 24.7144 97.377 24.7415 106.342C24.7685 115.307 24.7516 122.568 24.7076 122.568Z" fill="#F9F9F9"/>
<path d="M29.6261 104.395C29.6114 104.453 29.591 104.51 29.5653 104.564C29.5146 104.689 29.447 104.844 29.3692 105.034C29.3253 105.139 29.2779 105.25 29.2239 105.372C29.1698 105.493 29.1292 105.639 29.0785 105.784L28.9061 106.257C28.8486 106.426 28.8013 106.595 28.7438 106.798C28.4816 107.686 28.275 108.589 28.1252 109.503C27.9556 110.623 27.8427 111.751 27.7872 112.883C27.7074 114.942 27.7661 117.005 27.963 119.056C28.0339 119.847 28.1049 120.482 28.159 120.922C28.1793 121.128 28.1996 121.297 28.2131 121.429C28.2177 121.488 28.2177 121.548 28.2131 121.608C28.1918 121.552 28.1781 121.492 28.1725 121.432C28.1489 121.3 28.1218 121.135 28.088 120.932C28.017 120.492 27.9258 119.857 27.8413 119.069C27.6114 117.014 27.5379 114.943 27.6215 112.876C27.6717 111.739 27.7845 110.604 27.9596 109.479C28.1159 108.564 28.335 107.66 28.6154 106.775C28.6762 106.585 28.7269 106.403 28.7878 106.237L28.9703 105.764L29.1326 105.355C29.1867 105.23 29.2408 105.122 29.2881 105.017L29.5146 104.557C29.5429 104.497 29.5806 104.443 29.6261 104.395Z" fill="#F9F9F9"/>
<path d="M29.0617 98.523C29.043 98.6044 29.0193 98.6846 28.9907 98.763C28.9332 98.9287 28.8555 99.1551 28.7608 99.4391L28.5918 99.9259C28.5377 100.108 28.4769 100.304 28.4126 100.514C28.2842 100.933 28.1354 101.41 28.0036 101.947L27.7805 102.789C27.7129 103.083 27.6453 103.391 27.5743 103.705C27.4188 104.337 27.3072 105.024 27.1653 105.733C26.9219 107.174 26.7089 108.776 26.5602 110.449C26.4114 112.123 26.3607 113.742 26.3404 115.205C26.3201 116.669 26.3404 117.988 26.4148 119.093C26.4317 119.647 26.4689 120.144 26.4959 120.584C26.523 121.023 26.55 121.402 26.5771 121.709C26.6041 122.017 26.6176 122.244 26.6311 122.423C26.6357 122.505 26.6357 122.587 26.6311 122.669C26.6094 122.59 26.5958 122.508 26.5906 122.426C26.5703 122.247 26.5433 122.014 26.5061 121.716C26.4689 121.419 26.4317 121.04 26.3979 120.591C26.3641 120.141 26.3201 119.654 26.2931 119.1C26.2187 117.991 26.1883 116.673 26.1849 115.205C26.1815 113.738 26.2525 112.126 26.3945 110.439C26.5365 108.752 26.763 107.153 27.0131 105.706C27.1585 104.986 27.2768 104.3 27.4357 103.678C27.5101 103.36 27.5844 103.053 27.652 102.759L27.8853 101.92C28.0239 101.383 28.1828 100.906 28.3214 100.487C28.389 100.277 28.4532 100.085 28.5107 99.9022C28.5681 99.7197 28.6357 99.5642 28.6932 99.4188L28.9501 98.7427C28.9789 98.6655 29.0163 98.5918 29.0617 98.523Z" fill="#F9F9F9"/>
<path d="M23.3115 123.853C23.3079 123.825 23.3079 123.796 23.3115 123.768C23.3115 123.704 23.3115 123.623 23.2912 123.518C23.2743 123.288 23.254 122.967 23.227 122.558C23.1729 121.709 23.0985 120.506 23.0039 119.019C22.8146 116.034 22.5374 111.92 22.0337 107.373C21.7768 105.101 21.4793 102.948 21.1683 100.994C21.006 100.021 20.8573 99.0943 20.6849 98.2289C20.5125 97.3635 20.3468 96.5624 20.2116 95.8288C20.0764 95.0953 19.904 94.4395 19.7722 93.8614C19.6403 93.2833 19.522 92.783 19.4341 92.3774C19.3462 91.9717 19.2617 91.6675 19.2042 91.441C19.184 91.343 19.1637 91.2618 19.1502 91.1976C19.1449 91.1697 19.1449 91.141 19.1502 91.1131C19.1641 91.1386 19.1743 91.1659 19.1806 91.1942L19.2482 91.4342C19.3124 91.6574 19.3969 91.9684 19.5085 92.3639C19.62 92.7594 19.7519 93.2597 19.8905 93.8411C20.0291 94.4226 20.1981 95.075 20.3502 95.8085C20.5023 96.5421 20.6883 97.3399 20.8438 98.2053C20.9993 99.0707 21.1818 99.9969 21.3441 100.974C21.6618 102.928 21.9627 105.084 22.2196 107.353C22.7233 111.896 22.9836 116.024 23.1458 119.012C23.227 120.509 23.2844 121.716 23.3182 122.555C23.3182 122.964 23.3453 123.285 23.352 123.518C23.352 123.619 23.352 123.704 23.352 123.768C23.3428 123.798 23.3291 123.827 23.3115 123.853Z" fill="#F9F9F9"/>
<path d="M24.5284 93.6281C24.4303 92.614 23.3925 91.8229 22.3581 91.8128C21.8407 91.8356 21.3353 91.9759 20.8802 92.223C20.4251 92.4702 20.0323 92.8178 19.7315 93.2394C19.1365 94.0879 18.7065 95.0409 18.4638 96.0485C17.7675 98.4723 17.3889 101.018 17.6863 103.523C17.9838 106.028 18.998 108.492 20.7963 110.26C21.0871 110.551 21.4724 110.838 21.868 110.75C22.082 110.688 22.2764 110.571 22.4325 110.412C24.1927 108.8 25.5878 106.831 26.5241 104.636C27.4605 102.441 27.9165 100.071 27.8615 97.6846C27.8344 96.7347 27.7093 95.7409 27.1854 94.9499C26.6614 94.1588 25.4275 93.3137 24.5317 93.6315" fill="#A8A8A8"/>
<path d="M16.8108 85.3799L15.3573 88.0166C15.3234 88.0775 15.2795 88.1485 15.2085 88.1518C15.1375 88.1552 15.0733 88.0876 15.0327 88.0234L11.1858 82.1347L12.0715 81.631L16.8108 85.3799Z" fill="#D0D0D0"/>
<path d="M24.6165 90.1294L11.4936 82.3848C11.4189 82.3561 11.3506 82.313 11.2926 82.2579C11.2346 82.2028 11.1881 82.1368 11.1556 82.0637C11.1049 81.871 11.2502 81.6817 11.3888 81.5363C12.2918 80.6006 13.3856 79.8702 14.596 79.3948C15.8063 78.9194 17.1048 78.7102 18.4033 78.7812C19.7011 78.8746 20.9568 79.2826 22.0617 79.9699C23.1666 80.6573 24.0875 81.6033 24.745 82.7262C26.0092 84.9877 26.0532 87.9828 24.5996 90.1294" fill="#A8A8A8"/>
<path d="M13.4001 79.9137C13.4562 79.8982 13.5144 79.8913 13.5725 79.8934C13.6841 79.8934 13.8531 79.8664 14.0695 79.8697C14.6788 79.8615 15.2875 79.9091 15.8881 80.0117C16.783 80.1651 17.6551 80.4297 18.4843 80.7994C19.9155 81.4433 21.1865 82.3958 22.2063 83.5886C23.2261 84.7814 23.9695 86.185 24.3832 87.6988C24.5525 88.2863 24.6657 88.8884 24.7212 89.4972C24.7483 89.7102 24.7415 89.8792 24.7483 89.9942C24.7541 90.0515 24.7541 90.1092 24.7483 90.1666C24.7483 90.1666 24.7179 89.9299 24.6638 89.4905C24.5889 88.8899 24.4657 88.2964 24.2953 87.7157C23.745 85.7888 22.6656 84.0548 21.1795 82.7104C19.6935 81.3659 17.8604 80.465 15.8881 80.1098C15.2938 79.9968 14.6912 79.9323 14.0864 79.9171C13.6233 79.9205 13.4001 79.9272 13.4001 79.9137Z" fill="#263238"/>
<path d="M22.8383 84.7849C22.6267 84.9138 22.3995 85.0149 22.1622 85.0858C21.743 85.2514 21.148 85.461 20.5057 85.6706C19.8635 85.8802 19.255 86.0424 18.8155 86.1506C18.5823 86.2219 18.342 86.2672 18.0989 86.2858C18.3151 86.1813 18.5417 86.0997 18.775 86.0424L20.4449 85.5185L22.1115 84.981C22.3466 84.8917 22.5901 84.826 22.8383 84.7849Z" fill="#263238"/>
<path d="M20.7729 79.2343C20.8903 79.7129 20.9426 80.2053 20.9284 80.698C20.967 81.1896 20.9397 81.6841 20.8472 82.1685C20.7839 81.6822 20.759 81.1916 20.7729 80.7014C20.7342 80.2131 20.7342 79.7225 20.7729 79.2343Z" fill="#263238"/>
<path d="M11.3718 82.2394C11.6789 82.0985 11.9979 81.9854 12.3251 81.9014C12.9201 81.7155 13.7517 81.4822 14.6914 81.2591C15.6312 81.036 16.4628 80.867 17.0577 80.7588C17.3912 80.6843 17.7305 80.6391 18.0719 80.6236C17.7509 80.7268 17.4234 80.8081 17.0915 80.867C16.483 81.0022 15.6447 81.205 14.7252 81.4146C13.8057 81.6242 12.9708 81.8507 12.3589 82.0062C12.0354 82.1057 11.7057 82.1836 11.3718 82.2394Z" fill="#263238"/>
<path d="M18.5654 91.1874C17.4364 90.3322 16.2431 90.1733 14.8267 90.2172C13.41 90.3075 12.0228 90.6617 10.7363 91.2618C8.52213 92.2286 6.44316 93.6585 5.12141 95.68C3.79966 97.7015 3.33654 100.379 4.32701 102.583C4.40494 102.813 4.56498 103.007 4.77661 103.127C5.02246 103.196 5.28459 103.175 5.51692 103.07C8.03535 102.248 10.5673 101.42 12.8829 100.135C15.1985 98.8509 17.3045 97.0626 18.5451 94.7267C18.8628 94.1816 19.0675 93.578 19.1469 92.952C19.1807 92.6353 19.1467 92.315 19.047 92.0125C18.9473 91.7099 18.7843 91.4321 18.5688 91.1976" fill="#A8A8A8"/>
<path d="M18.5856 90.9238C18.5292 90.9559 18.4691 90.9809 18.4065 90.9981L17.8791 91.1807L17.4971 91.3058C17.3585 91.3565 17.2098 91.4173 17.0509 91.4815C16.7332 91.61 16.3748 91.7385 15.9726 91.9278L15.3573 92.2083C15.141 92.3064 14.928 92.4281 14.7015 92.5464C14.2451 92.7695 13.7854 93.0568 13.2919 93.3475C11.1838 94.6544 9.308 96.3029 7.74118 98.2255C7.40314 98.6751 7.04819 99.0977 6.76762 99.5236C6.62226 99.7332 6.4769 99.9293 6.34844 100.129L6.0104 100.703C5.77377 101.065 5.59798 101.417 5.42896 101.718C5.34783 101.866 5.2667 102.005 5.19909 102.137C5.13148 102.269 5.0774 102.387 5.02669 102.498L4.77654 102.999C4.75297 103.059 4.72112 103.116 4.68188 103.168C4.69835 103.105 4.721 103.044 4.7495 102.985L4.96922 102.471C5.01993 102.36 5.07402 102.238 5.13148 102.103C5.18895 101.968 5.27346 101.829 5.35121 101.677C5.51347 101.369 5.68926 101.001 5.91236 100.646C6.0273 100.46 6.14223 100.264 6.25041 100.061C6.35858 99.8583 6.52084 99.6622 6.66282 99.4492C6.94002 99.0165 7.28144 98.5906 7.62963 98.1342C8.41748 97.1658 9.28109 96.2615 10.2123 95.4299C11.1538 94.612 12.16 93.8715 13.2209 93.2157C13.7178 92.925 14.1843 92.641 14.644 92.4213C14.8739 92.3064 15.0903 92.188 15.3201 92.0833L15.9455 91.8128C16.341 91.6269 16.7129 91.5052 17.0374 91.3835C17.1997 91.326 17.3484 91.2686 17.4904 91.2212L17.8757 91.1063L18.4132 90.9542C18.4699 90.9398 18.5275 90.9296 18.5856 90.9238Z" fill="#263238"/>
<path d="M9.76946 95.697C8.87072 96.0393 7.95446 96.3339 7.02454 96.5793C6.10862 96.8771 5.17633 97.122 4.2323 97.3128C5.13104 96.9704 6.0473 96.6759 6.97722 96.4305C7.8937 96.1346 8.82588 95.8897 9.76946 95.697Z" fill="#263238"/>
<path d="M9.65454 101.741C9.60842 101.459 9.58805 101.172 9.59369 100.886C9.59369 100.359 9.59369 99.6251 9.59369 98.8205C9.59369 98.016 9.6613 97.2824 9.70525 96.7551C9.71212 96.4682 9.74836 96.1827 9.81342 95.9032C9.83617 96.189 9.83617 96.4761 9.81342 96.7618C9.79314 97.3399 9.77285 98.043 9.74919 98.8239C9.72553 99.6048 9.71201 100.308 9.6951 100.886C9.70775 101.172 9.69417 101.458 9.65454 101.741Z" fill="#263238"/>
<path d="M14.8468 99.1112C14.8029 99.1112 14.6643 97.6272 14.5392 95.7916C14.4141 93.956 14.3431 92.4653 14.3871 92.4653C14.431 92.4653 14.5663 93.9459 14.6947 95.7815C14.8232 97.6171 14.8908 99.1078 14.8468 99.1112Z" fill="#263238"/>
<path d="M8.38684 92.3199C8.67829 92.2831 8.97259 92.274 9.26575 92.2929C9.80662 92.2929 10.5571 92.3132 11.3853 92.3402C12.2135 92.3672 12.9606 92.401 13.5014 92.4315C13.7951 92.4353 14.088 92.4636 14.377 92.516C14.0855 92.5528 13.7912 92.5619 13.4981 92.543C12.9572 92.543 12.2067 92.5261 11.3785 92.4957C10.5503 92.4653 9.80325 92.4349 9.25899 92.4044C8.9664 92.4011 8.67463 92.3728 8.38684 92.3199Z" fill="#263238"/>
<path d="M21.361 110.963C21.346 110.903 21.3391 110.842 21.3407 110.78C21.3407 110.649 21.3407 110.476 21.317 110.267C21.2968 109.817 21.2934 109.171 21.317 108.367C21.3407 107.562 21.3847 106.612 21.4793 105.558C21.574 104.503 21.7295 103.344 21.9424 102.137C22.1554 100.93 22.4191 99.7974 22.6861 98.7563C22.9532 97.7151 23.2439 96.8193 23.5076 96.0519C23.7712 95.2846 23.9943 94.6997 24.1837 94.2738C24.2648 94.0777 24.329 93.9358 24.3831 93.7972C24.4038 93.7407 24.4299 93.6864 24.4609 93.6349C24.4534 93.6947 24.4363 93.753 24.4101 93.8073L24.2175 94.3042C24.062 94.7234 23.849 95.3183 23.6022 96.0958C23.3554 96.8733 23.085 97.7861 22.818 98.8002C22.5509 99.8143 22.3008 100.957 22.0844 102.16C21.8681 103.364 21.7227 104.527 21.6145 105.564C21.5063 106.602 21.4455 107.566 21.4185 108.363C21.3914 109.161 21.3745 109.81 21.3745 110.26C21.3745 110.469 21.3745 110.639 21.3745 110.774C21.3744 110.837 21.3699 110.9 21.361 110.963Z" fill="#263238"/>
<path d="M22.0506 102.008C21.8971 102.218 21.7215 102.411 21.5266 102.583C21.1886 102.921 20.7052 103.374 20.1575 103.857C19.6099 104.341 19.0927 104.757 18.7107 105.051C18.5153 105.221 18.3023 105.369 18.0752 105.493C18.2472 105.299 18.4374 105.121 18.6431 104.963L20.0528 103.739L21.4523 102.502C21.6355 102.319 21.8359 102.153 22.0506 102.008Z" fill="#263238"/>
<path d="M26.2052 105.351C25.9996 105.109 25.8131 104.852 25.6474 104.581L24.3527 102.688L23.0276 100.815C22.831 100.565 22.6536 100.301 22.4968 100.024C22.7256 100.245 22.9327 100.487 23.1154 100.747C23.4805 101.21 23.9673 101.86 24.4676 102.6C24.9679 103.34 25.4209 104.02 25.7285 104.52C25.9131 104.782 26.0727 105.06 26.2052 105.351Z" fill="#263238"/>
<path d="M24.0281 94.8282C24.0518 94.8653 22.6759 95.795 20.9485 96.9038C19.2211 98.0125 17.8047 98.8847 17.7811 98.8475C17.7574 98.8103 19.1332 97.8807 20.864 96.7719C22.5948 95.6631 24.0078 94.7944 24.0281 94.8282Z" fill="#263238"/>
<path d="M27.9361 99.0369C27.2076 98.4303 26.5114 97.786 25.8504 97.1066C25.1543 96.4675 24.4941 95.7904 23.8728 95.0784C24.6039 95.6832 25.3013 96.3275 25.9619 97.0086C26.6584 97.6462 27.3176 98.3234 27.9361 99.0369Z" fill="#263238"/>
<path d="M28.8994 98.9456L30.0826 98.8475C30.9239 98.7786 31.7404 98.5284 32.4759 98.114C32.8359 97.9042 33.2084 97.7168 33.5915 97.5528C35.0552 96.968 36.6913 97.0728 38.2666 96.9917C40.8476 96.8617 43.3764 96.2157 45.7036 95.0919C45.8433 95.0302 45.9612 94.9277 46.0416 94.7978C46.285 94.3549 45.832 93.9594 45.4433 93.7194C43.4454 92.4889 41.4138 91.2449 39.1523 90.6331C36.8908 90.0212 34.3183 90.126 32.3914 91.4545C30.1265 93.0163 29.2983 96.2209 28.9163 98.9456" fill="#A8A8A8"/>
<path d="M46.0518 94.6423C45.9837 94.6143 45.9171 94.5828 45.8524 94.5476L45.2912 94.2535C44.8044 93.9966 44.1047 93.618 43.2156 93.1955C42.1859 92.6869 41.1122 92.2727 40.0076 91.9582C38.6568 91.5698 37.2421 91.4549 35.8463 91.6202C34.4485 91.7756 33.1284 92.3427 32.0534 93.2496C31.2138 94.0297 30.542 94.9729 30.0792 96.0215C29.6635 96.9106 29.4032 97.6678 29.2206 98.1816L29.0076 98.78C28.9867 98.8509 28.9595 98.9199 28.9265 98.9862C28.9362 98.9126 28.9532 98.8401 28.9772 98.7698C29.0245 98.6177 29.0854 98.4149 29.1598 98.1647C29.3854 97.4262 29.654 96.7016 29.9643 95.9945C30.4198 94.9214 31.0946 93.9553 31.9452 93.1583C33.0353 92.2193 34.3829 91.6303 35.8125 91.4681C37.2272 91.297 38.6618 91.412 40.0313 91.8061C41.1421 92.1322 42.2205 92.5599 43.2528 93.0839C44.1351 93.5234 44.8281 93.9155 45.3081 94.1893L45.8558 94.5105C45.9264 94.546 45.9923 94.5903 46.0518 94.6423Z" fill="#263238"/>
<path d="M43.2088 96.1804C43.1852 96.2142 41.6336 95.2136 39.7473 93.9425C37.861 92.6715 36.3499 91.61 36.3668 91.5762C36.3837 91.5424 37.9387 92.543 39.825 93.8141C41.7113 95.0851 43.2325 96.1432 43.2088 96.1804Z" fill="#263238"/>
<path d="M41.7214 91.4241C40.932 91.6722 40.0989 91.7494 39.2773 91.6506C39.6791 91.567 40.0875 91.5195 40.4977 91.5086C40.9024 91.4452 41.3118 91.4169 41.7214 91.4241Z" fill="#263238"/>
<path d="M34.7746 90.1801C34.4789 90.8798 34.0913 91.5369 33.6218 92.134C33.7428 91.774 33.9135 91.4327 34.1289 91.1199C34.2984 90.7776 34.5158 90.4612 34.7746 90.1801Z" fill="#263238"/>
<path d="M36.1607 97.0931C35.8993 96.9842 35.6501 96.8482 35.417 96.6874C34.9674 96.417 34.3623 96.0113 33.7268 95.5482C33.0913 95.0851 32.5132 94.6355 32.1008 94.311C31.8699 94.1478 31.6549 93.9633 31.4585 93.7599C31.7097 93.8908 31.9474 94.0459 32.1684 94.2231L33.8214 95.4231C34.4637 95.8896 35.0553 96.2987 35.488 96.5961C35.7263 96.7418 35.9514 96.9081 36.1607 97.0931Z" fill="#263238"/>
<path d="M30.6403 103.979C29.5112 103.678 28.1624 104.777 27.9359 105.923C27.7095 107.069 28.1354 108.238 28.6357 109.303C29.7123 111.668 31.3093 113.758 33.3075 115.418C35.3228 117.071 37.8376 117.994 40.4436 118.038C39.9669 115.821 40.5686 113.502 40.305 111.247C40.0694 109.261 39.1672 107.414 37.7457 106.007C36.3242 104.6 34.4676 103.717 32.4793 103.502C31.7592 103.425 30.9243 103.313 30.6369 103.979" fill="#A8A8A8"/>
<path d="M40.4435 118.038C40.3869 118.019 40.3325 117.995 40.2813 117.964C40.1332 117.88 39.9919 117.785 39.8587 117.68C39.3853 117.268 39.005 116.76 38.7432 116.189C38.564 115.851 38.3612 115.459 38.1651 115.036C37.969 114.614 37.773 114.168 37.5566 113.684C37.3398 113.189 37.0902 112.709 36.8096 112.248C36.5086 111.755 36.1695 111.287 35.7954 110.848C35.0247 109.942 34.1931 109.158 33.4731 108.404C32.8221 107.748 32.2294 107.037 31.7017 106.278C31.3482 105.763 31.0577 105.208 30.8363 104.625C30.7653 104.418 30.7112 104.253 30.6842 104.141C30.6655 104.086 30.6541 104.028 30.6504 103.969C30.6504 103.969 30.7281 104.199 30.8938 104.604C31.1349 105.173 31.4363 105.713 31.793 106.217C32.3308 106.959 32.9277 107.657 33.5779 108.303C34.3013 109.046 35.1362 109.831 35.9171 110.747C36.2998 111.192 36.6468 111.667 36.9549 112.166C37.2344 112.636 37.4839 113.122 37.702 113.623L38.2969 114.976C38.4862 115.395 38.6823 115.78 38.8581 116.128C39.1048 116.694 39.4636 117.203 39.9128 117.626C40.2373 117.917 40.4604 118.025 40.4435 118.038Z" fill="#263238"/>
<path d="M34.6055 116.196C34.6123 115.939 34.6474 115.684 34.7103 115.435C34.7982 114.969 34.9435 114.33 35.1396 113.634C35.3356 112.937 35.5452 112.319 35.7143 111.876C35.7883 111.63 35.8915 111.394 36.0219 111.173C35.9762 111.424 35.9083 111.67 35.8191 111.91C35.6771 112.363 35.481 112.985 35.2917 113.678C35.1024 114.371 34.9537 114.999 34.8184 115.459C34.7719 115.711 34.7005 115.958 34.6055 116.196Z" fill="#263238"/>
<path d="M40.2374 110.75C39.9667 110.71 39.6999 110.648 39.4396 110.564C38.9528 110.439 38.2801 110.263 37.533 110.094C36.7859 109.925 36.1031 109.797 35.6096 109.702C35.3389 109.667 35.0719 109.609 34.8118 109.526C35.085 109.519 35.3581 109.542 35.6265 109.594C36.1268 109.658 36.8164 109.773 37.5668 109.932C38.3173 110.091 38.99 110.294 39.47 110.449C39.7355 110.523 39.9927 110.623 40.2374 110.75Z" fill="#263238"/>
<path d="M30.4138 112.332C30.4266 112.035 30.4673 111.739 30.5355 111.45C30.6369 110.912 30.7924 110.169 31.0054 109.361C31.2184 108.553 31.4415 107.826 31.6173 107.305C31.704 107.019 31.8172 106.742 31.9553 106.477C31.9062 106.77 31.8339 107.058 31.7389 107.339C31.5902 107.867 31.3806 108.593 31.171 109.398C30.9615 110.202 30.7857 110.943 30.6606 111.473C30.6029 111.766 30.5204 112.053 30.4138 112.332Z" fill="#263238"/>
<path d="M37.6446 106.004C37.6446 106.044 36.2282 105.933 34.494 105.747C32.7599 105.561 31.3536 105.379 31.3604 105.338C32.4142 105.368 33.4658 105.453 34.5109 105.591C35.5618 105.675 36.6078 105.813 37.6446 106.004Z" fill="#263238"/>
<path d="M36.6101 123.109C36.6101 123.153 31.651 123.187 25.5357 123.187C19.4205 123.187 14.4614 123.153 14.4614 123.109C14.4614 123.065 19.4205 123.031 25.5357 123.031C31.651 123.031 36.6101 123.065 36.6101 123.109Z" fill="#455A64"/>
<path d="M33.1622 129.488C33.1622 129.532 29.8189 129.569 25.6982 129.569C21.5774 129.569 18.2375 129.532 18.2375 129.488C18.2375 129.444 21.5774 129.41 25.6982 129.41C29.8189 129.41 33.1622 129.461 33.1622 129.488Z" fill="#455A64"/>
<path d="M33.2906 130.401C33.2906 130.445 29.9508 130.478 25.83 130.478C21.7093 130.478 18.3694 130.445 18.3694 130.401C18.3694 130.357 21.7093 130.323 25.83 130.323C29.9508 130.323 33.2906 130.357 33.2906 130.401Z" fill="#455A64"/>
<path d="M33.2906 128.737C33.2906 128.781 29.8357 128.815 25.573 128.815C21.3103 128.815 17.8555 128.781 17.8555 128.737C17.8555 128.693 21.3103 128.66 25.573 128.66C29.8357 128.66 33.2906 128.693 33.2906 128.737Z" fill="#455A64"/>
<path d="M36.573 120.087H14.4988V123.119H36.573V120.087Z" fill="white"/>
<path d="M16.5474 122.112L19.7216 137.787H31.4788L34.5516 123.122L16.5474 122.112Z" fill="white"/>
</svg>
