<svg width="52" height="52" viewBox="0 0 52 52" fill="none" xmlns="http://www.w3.org/2000/svg">
<path d="M35.418 13.8923H40.7992V19.2736H35.418V13.8923Z" fill="#0051FF"/>
<path d="M35.418 21.9641H40.7992V27.3454H35.418V21.9641Z" fill="#0051FF"/>
<path d="M27.3438 13.8923H32.725V19.2736H27.3438V13.8923Z" fill="#0051FF"/>
<path d="M27.3438 21.9641H32.725V27.3454H27.3438V21.9641Z" fill="#0051FF"/>
<path d="M23.9828 39.4532C25.0973 39.4532 26.0008 38.5497 26.0008 37.4352C26.0008 36.3207 25.0973 35.4172 23.9828 35.4172C22.8683 35.4172 21.9648 36.3207 21.9648 37.4352C21.9648 38.5497 22.8683 39.4532 23.9828 39.4532Z" fill="#0051FF"/>
<path d="M32.7266 44.8345H15.2375C14.5241 44.8338 13.8402 44.5501 13.3357 44.0457C12.8313 43.5412 12.5476 42.8573 12.5469 42.1439V9.8564C12.5476 9.14302 12.8313 8.45906 13.3357 7.95462C13.8402 7.45019 14.5241 7.16648 15.2375 7.16577H32.7266V9.8564H15.2375V42.1439H32.7266V31.3814H35.4172V42.1439C35.4165 42.8573 35.1328 43.5412 34.6283 44.0457C34.1239 44.5501 33.4399 44.8338 32.7266 44.8345Z" fill="#0051FF"/>
</svg>
