<svg width="36" height="35" viewBox="0 0 36 35" fill="none" xmlns="http://www.w3.org/2000/svg">
<path fill-rule="evenodd" clip-rule="evenodd" d="M2.38119 0.88034C1.76937 1.02724 1.24857 1.44252 0.96553 2.00918L0.798832 2.34291L0.780738 12.0877L0.762575 21.8325H18.3768H35.991L35.9729 12.0877L35.9548 2.34291L35.7881 2.00918C35.576 1.58447 35.2164 1.2302 34.7823 1.01816L34.4412 0.851529L18.5144 0.841157C9.75466 0.835463 2.49471 0.853088 2.38119 0.88034ZM6.29094 4.97749C6.58237 5.09748 6.87049 5.4386 6.92581 5.72908C6.99034 6.06796 6.90379 6.3497 6.65557 6.60906C6.26328 7.01885 5.58534 7.01885 5.19305 6.60906C4.82037 6.21974 4.80303 5.69064 5.14964 5.28479C5.46577 4.91465 5.8723 4.80517 6.29094 4.97749ZM14.9105 5.05871C15.2581 5.31454 15.3841 5.54469 15.3841 5.92377C15.3841 6.18558 15.3422 6.33261 15.219 6.5027C14.9257 6.90795 14.8479 6.91873 12.2194 6.91873C9.62105 6.91873 9.51015 6.90435 9.24142 6.53246C8.94786 6.12626 8.96155 5.65485 9.27754 5.28479C9.61431 4.89045 9.64788 4.88625 12.3004 4.90333C14.6245 4.91831 14.7282 4.92448 14.9105 5.05871ZM6.29094 9.04489C6.74934 9.23361 7.02887 9.76061 6.92278 10.2363C6.85494 10.5406 6.4855 10.8975 6.17969 10.954C5.77577 11.0287 5.43969 10.9341 5.19305 10.6765C4.82037 10.2871 4.80303 9.75804 5.14964 9.35218C5.46577 8.98205 5.8723 8.87257 6.29094 9.04489ZM24.7486 9.1261C25.0999 9.38458 25.2222 9.61107 25.2222 10.0032C25.2222 10.4266 25.0675 10.6834 24.7014 10.8674C24.4822 10.9775 24.0448 10.9859 18.5294 10.986C12.0588 10.9861 12.282 10.9993 11.9934 10.5999C11.6998 10.1937 11.7135 9.72224 12.0295 9.35218C12.3833 8.93785 12.0839 8.9552 18.5954 8.9714C24.499 8.98618 24.5605 8.98774 24.7486 9.1261ZM31.3534 9.1261C31.701 9.38207 31.8269 9.61209 31.8269 9.99117C31.8269 10.4116 31.6183 10.7481 31.2685 10.8921C30.9428 11.0262 28.2391 11.0262 27.9134 10.8921C27.3189 10.6474 27.1467 9.85708 27.5779 9.35218C27.8995 8.97561 28.0275 8.95222 29.6721 8.97012C31.057 8.98516 31.1772 8.99628 31.3534 9.1261ZM6.29094 13.1123C6.74934 13.301 7.02887 13.828 6.92278 14.3037C6.85494 14.608 6.4855 14.9648 6.17969 15.0214C5.77577 15.0961 5.43969 15.0015 5.19305 14.7438C4.82037 14.3545 4.80303 13.8254 5.14964 13.4196C5.46577 13.0494 5.8723 12.94 6.29094 13.1123ZM18.144 13.1935C18.4916 13.4493 18.6176 13.6795 18.6176 14.0586C18.6176 14.479 18.409 14.8155 18.0592 14.9595C17.7256 15.0968 12.6986 15.0968 12.365 14.9595C11.7704 14.7148 11.5983 13.9245 12.0295 13.4196C12.3687 13.0224 12.3788 13.0212 15.2931 13.0382C17.8605 13.0532 17.9608 13.0586 18.144 13.1935ZM25.1692 13.153C25.5865 13.3396 25.7524 13.6307 25.7205 14.1205C25.7012 14.417 25.6553 14.5513 25.5275 14.6862C25.1845 15.048 25.1453 15.0535 22.9381 15.0532C21.0137 15.053 20.8742 15.0448 20.6637 14.9183C19.9645 14.4982 20.0108 13.4769 20.7438 13.1489C20.997 13.0355 21.2207 13.0228 22.9519 13.0228C24.7045 13.0228 24.9045 13.0345 25.1692 13.153ZM31.3534 13.1935C31.701 13.4495 31.8269 13.6795 31.8269 14.0586C31.8269 14.479 31.6183 14.8155 31.2685 14.9595C30.9428 15.0936 28.2391 15.0936 27.9134 14.9595C27.3189 14.7148 27.1467 13.9245 27.5779 13.4196C27.8995 13.043 28.0275 13.0196 29.6721 13.0375C31.057 13.0526 31.1772 13.0637 31.3534 13.1935ZM6.29094 17.1797C6.74934 17.3684 7.02887 17.8954 6.92278 18.3711C6.85494 18.6754 6.4855 19.0322 6.17969 19.0888C5.77577 19.1635 5.43969 19.0689 5.19305 18.8112C4.82037 18.4219 4.80303 17.8928 5.14964 17.487C5.46577 17.1168 5.8723 17.0074 6.29094 17.1797ZM14.9105 17.2609C15.2581 17.5167 15.3841 17.7469 15.3841 18.126C15.3841 18.3878 15.3422 18.5348 15.219 18.7049C14.9257 19.1101 14.8479 19.1209 12.2194 19.1209C9.62105 19.1209 9.51015 19.1065 9.24142 18.7346C8.94786 18.3284 8.96155 17.857 9.27754 17.487C9.61431 17.0926 9.64788 17.0884 12.3004 17.1055C14.6245 17.1205 14.7282 17.1267 14.9105 17.2609ZM0.776403 25.1712C0.798144 26.4331 0.804886 26.4873 0.981904 26.8151C1.21912 27.2544 1.53291 27.5446 2.0028 27.7594L2.38119 27.9322L18.3768 27.9328L34.3724 27.9335L34.7858 27.7408C35.2273 27.535 35.5489 27.2246 35.7996 26.7623C35.9424 26.499 35.9566 26.3721 35.9772 25.1712L35.9997 23.8662H18.3768H0.753906L0.776403 25.1712ZM12.185 31.1875V32.4077L10.7918 32.4079C9.60137 32.4079 9.3643 32.4252 9.16272 32.5265C8.79664 32.7104 8.64184 32.9672 8.64184 33.3907C8.64184 33.7828 8.76417 34.0093 9.11552 34.2677C9.3052 34.4073 9.32219 34.4075 18.3768 34.4075C27.4314 34.4075 27.4484 34.4073 27.6381 34.2677C27.9857 34.012 28.1118 33.7818 28.1118 33.4027C28.1118 33.1409 28.0699 32.9938 27.9467 32.8238C27.6736 32.4464 27.488 32.4077 25.9468 32.4077H24.5687V31.1875V29.9673H18.3768H12.185V31.1875Z" fill="#0051FF"/>
</svg>
