    <svg width="176" height="31" viewBox="0 0 176 31" fill="none" xmlns="http://www.w3.org/2000/svg">
<path d="M16.1818 9.41064C17.5713 9.41064 18.9039 9.96929 19.8864 10.9637C20.8689 11.9581 21.4209 13.3068 21.4209 14.713C21.4202 16.1145 20.8696 17.4582 19.8902 18.4489C18.9109 19.4396 17.5828 19.9961 16.1981 19.9961H16.1818C14.7966 19.9961 13.4682 19.4392 12.4887 18.4479C11.5092 17.4566 10.959 16.1122 10.959 14.7103V14.6937C10.9597 13.2923 11.5103 11.9485 12.4897 10.9579C13.4691 9.96717 14.7971 9.41064 16.1818 9.41064Z" fill="#0051FF"/>
<path d="M5.72084 19.9961H5.73719C7.122 19.9961 8.4501 20.5528 9.42931 21.5439C10.4085 22.5349 10.9586 23.879 10.9586 25.2806V25.2985C10.9586 26.7 10.4085 28.0441 9.42931 29.0352C8.4501 30.0262 7.122 30.5829 5.73719 30.5829H0.498047V25.2833C0.497868 24.5891 0.632828 23.9016 0.895218 23.2601C1.15761 22.6186 1.54229 22.0358 2.02729 21.5448C2.51229 21.0538 3.0881 20.6643 3.72185 20.3986C4.3556 20.1329 5.03486 19.9961 5.72084 19.9961Z" fill="#0051FF"/>
<path d="M5.7372 19.9961C4.34816 19.9961 3.01597 19.4379 2.03352 18.4441C1.05107 17.4503 0.498769 16.1023 0.498047 14.6965H0.498047C0.498047 13.2946 1.0483 11.9501 2.02777 10.9588C3.00723 9.96754 4.33567 9.41064 5.72085 9.41064H5.7372C6.423 9.41064 7.10208 9.54738 7.73567 9.81303C8.36925 10.0787 8.94492 10.4681 9.42979 10.9589C9.91466 11.4498 10.2992 12.0325 10.5616 12.6738C10.8239 13.3151 10.9588 14.0024 10.9586 14.6965V14.713C10.9583 16.1143 10.408 17.4581 9.42883 18.4488C8.44966 19.4396 7.12177 19.9961 5.7372 19.9961Z" fill="#0051FF"/>
<path d="M16.1818 19.9961H16.1981C17.5831 19.9961 18.9113 20.5528 19.8907 21.5438C20.8702 22.5348 21.4206 23.8789 21.4209 25.2806V25.2985C21.4206 26.7001 20.8702 28.0443 19.8907 29.0352C18.9113 30.0262 17.5831 30.5829 16.1981 30.5829C14.8086 30.5829 13.476 30.0243 12.4935 29.0299C11.511 28.0355 10.959 26.6868 10.959 25.2806C10.9593 23.8789 11.5098 22.5348 12.4892 21.5438C13.4686 20.5528 14.7968 19.9961 16.1818 19.9961Z" fill="#0051FF"/>
<path d="M31.9818 15.3527C31.9818 13.9475 31.9641 12.7119 31.9136 11.5438C31.9043 11.3277 31.9382 11.1118 32.0135 10.9093C32.0888 10.7068 32.2038 10.5218 32.3516 10.3655C32.4994 10.2092 32.677 10.0848 32.8736 9.99982C33.0702 9.91484 33.2818 9.87105 33.4956 9.87107C33.9011 9.87084 34.2911 10.028 34.5855 10.3103C34.8798 10.5925 35.0559 10.9782 35.0776 11.388L35.1661 13.1311H35.2901C36.4061 11.2005 38.2674 9.40771 41.5757 9.40771C44.3009 9.40771 46.3721 11.0819 47.24 13.4676H47.3231C47.8752 12.4414 48.6342 11.544 49.551 10.8336C50.75 9.91244 52.0731 9.41047 53.9753 9.41047C56.6214 9.41047 60.5498 11.1687 60.5498 18.1991V28.7859C60.5498 29.0219 60.5037 29.2556 60.4143 29.4736C60.3248 29.6915 60.1938 29.8895 60.0285 30.056C59.8633 30.2226 59.6673 30.3545 59.4516 30.4442C59.2359 30.5339 59.0048 30.5796 58.7716 30.5787C58.3018 30.5787 57.8512 30.3898 57.5191 30.0536C57.1869 29.7174 57.0002 29.2614 57.0002 28.7859V18.6597C57.0002 14.768 55.594 12.4237 52.6577 12.4237C50.5906 12.4237 48.9787 13.9723 48.3573 15.772C48.1682 16.367 48.0707 16.9879 48.0685 17.613V28.7832C48.0685 29.0192 48.0224 29.2529 47.933 29.4708C47.8435 29.6888 47.7125 29.8867 47.5472 30.0533C47.382 30.2198 47.186 30.3517 46.9703 30.4414C46.7546 30.5311 46.5235 30.5768 46.2903 30.5759C46.0571 30.5768 45.826 30.5311 45.6103 30.4414C45.3946 30.3517 45.1986 30.2198 45.0333 30.0533C44.8681 29.8867 44.737 29.6888 44.6476 29.4708C44.5582 29.2529 44.5121 29.0192 44.5121 28.7832V17.9894C44.5121 14.768 43.1059 12.4237 40.3358 12.4237C38.0616 12.4237 36.4074 14.2647 35.8297 16.1071C35.6269 16.682 35.5286 17.2894 35.5395 17.8998V28.779C35.5395 29.015 35.4934 29.2487 35.404 29.4667C35.3145 29.6846 35.1835 29.8826 35.0183 30.0491C34.853 30.2157 34.657 30.3476 34.4413 30.4373C34.2256 30.527 33.9945 30.5727 33.7613 30.5718C33.2909 30.5718 32.8396 30.3831 32.5063 30.0471C32.1731 29.7111 31.9849 29.2551 31.9831 28.779L31.9818 15.3527Z" fill="#151515"/>
<path d="M69.961 20.6675C69.7658 20.6661 69.5726 20.7079 69.395 20.7899C69.2173 20.8719 69.0595 20.9921 68.9325 21.1422C68.8055 21.2922 68.7123 21.4686 68.6596 21.6588C68.6068 21.8491 68.5957 22.0487 68.6271 22.2437C69.2838 26.0843 72.1221 27.6978 75.3501 27.6978C77.1664 27.6978 78.484 27.4744 79.5741 27.1462C79.7478 27.0951 79.9299 27.0803 80.1095 27.1027C80.289 27.1251 80.4622 27.1842 80.6184 27.2764C80.7747 27.3686 80.9108 27.492 81.0184 27.6392C81.1261 27.7863 81.203 27.954 81.2446 28.1322C81.3219 28.4674 81.2714 28.8197 81.1032 29.1188C80.9349 29.4179 80.6614 29.6418 80.3371 29.7457C79.0331 30.1746 77.2195 30.5428 74.8582 30.5428C68.6979 30.5428 65.0176 26.4415 65.0176 20.3379C65.0176 14.2343 68.5739 9.41455 74.4044 9.41455C80.9367 9.41455 82.674 15.2313 82.674 18.9561C82.674 19.105 82.674 19.2485 82.6644 19.3836C82.6483 19.7319 82.4997 20.0604 82.2499 20.3004C82 20.5404 81.6682 20.6734 81.3237 20.6716L69.961 20.6675ZM77.706 18.0321C77.9015 18.0331 78.0948 17.9908 78.2724 17.9081C78.45 17.8255 78.6076 17.7044 78.7341 17.5536C78.8606 17.4027 78.9529 17.2256 79.0045 17.0348C79.0562 16.844 79.066 16.6441 79.0331 16.449C78.6543 14.3336 77.3585 12.0471 74.1142 12.0471C71.2405 12.0471 69.6272 14.1391 68.9214 16.2725C68.858 16.4759 68.8431 16.6915 68.8777 16.9019C68.9124 17.1122 68.9957 17.3113 69.1208 17.4828C69.246 17.6544 69.4094 17.7936 69.5978 17.889C69.7862 17.9845 69.9942 18.0335 70.2049 18.0321H77.706Z" fill="#151515"/>
<path d="M88.9981 0.413574C89.237 0.413574 89.4736 0.461193 89.6943 0.553713C89.915 0.646232 90.1155 0.78184 90.2844 0.952794C90.4533 1.12375 90.5873 1.3267 90.6787 1.55006C90.7702 1.77342 90.8172 2.01282 90.8172 2.25459V28.7445C90.8172 28.9862 90.7702 29.2256 90.6787 29.449C90.5873 29.6724 90.4533 29.8753 90.2844 30.0463C90.1155 30.2172 89.915 30.3528 89.6943 30.4454C89.4736 30.5379 89.237 30.5855 88.9981 30.5855C88.5156 30.5855 88.0528 30.3916 87.7114 30.0464C87.37 29.7011 87.1781 29.2329 87.1777 28.7445V2.25459C87.1781 1.76619 87.37 1.29793 87.7114 0.952711C88.0528 0.607493 88.5156 0.413574 88.9981 0.413574V0.413574Z" fill="#151515"/>
<path d="M100.988 4.17982C101.029 5.43474 100.12 6.44006 98.6717 6.44006C97.3895 6.44006 96.4793 5.43474 96.4793 4.17982C96.4714 3.8754 96.5248 3.57254 96.6363 3.28969C96.7478 3.00685 96.9151 2.74994 97.1278 2.5346C97.3406 2.31927 97.5945 2.15003 97.8739 2.03718C98.1534 1.92433 98.4526 1.87024 98.7534 1.87821C100.12 1.87821 100.988 2.88215 100.988 4.17982ZM96.9357 28.7446V11.2515C96.9357 11.0097 96.9828 10.7704 97.0742 10.547C97.1656 10.3236 97.2996 10.1207 97.4685 9.94972C97.6374 9.77877 97.838 9.64316 98.0587 9.55064C98.2794 9.45812 98.5159 9.4105 98.7548 9.4105C99.2374 9.4105 99.7002 9.60442 100.042 9.94964C100.383 10.2949 100.575 10.7631 100.575 11.2515V28.7446C100.575 29.233 100.383 29.7012 100.042 30.0465C99.7002 30.3917 99.2374 30.5856 98.7548 30.5856C98.5159 30.5856 98.2794 30.538 98.0587 30.4455C97.838 30.3529 97.6374 30.2173 97.4685 30.0464C97.2996 29.8754 97.1656 29.6725 97.0742 29.4491C96.9828 29.2257 96.9357 28.9863 96.9357 28.7446Z" fill="#151515"/>
<path d="M106.612 15.3527C106.612 13.9475 106.593 12.7119 106.542 11.5438C106.533 11.3277 106.567 11.112 106.643 10.9095C106.718 10.7071 106.833 10.5222 106.981 10.3659C107.129 10.2097 107.306 10.0853 107.503 10.0002C107.699 9.91517 107.911 9.87124 108.124 9.87107C108.53 9.87084 108.92 10.028 109.214 10.3103C109.509 10.5925 109.685 10.9782 109.706 11.388L109.795 13.1311H109.914C111.031 11.2005 112.891 9.40771 116.199 9.40771C118.924 9.40771 120.995 11.0819 121.863 13.4676H121.947C122.5 12.4399 123.261 11.5415 124.18 10.8309C125.379 9.90968 126.702 9.40771 128.604 9.40771C131.25 9.40771 135.177 11.166 135.177 18.1963V28.7832C135.177 29.0186 135.131 29.2517 135.042 29.4692C134.953 29.6867 134.823 29.8843 134.658 30.0508C134.494 30.2173 134.299 30.3493 134.084 30.4394C133.869 30.5295 133.639 30.5759 133.406 30.5759C133.173 30.5759 132.943 30.5295 132.728 30.4394C132.513 30.3493 132.318 30.2173 132.153 30.0508C131.989 29.8843 131.858 29.6867 131.769 29.4692C131.68 29.2517 131.635 29.0186 131.635 28.7832V18.6597C131.635 14.768 130.228 12.4237 127.292 12.4237C125.225 12.4237 123.613 13.9723 122.993 15.772C122.803 16.3667 122.705 16.9878 122.703 17.613V28.7832C122.703 29.2586 122.516 29.7146 122.184 30.0508C121.852 30.387 121.401 30.5759 120.931 30.5759C120.462 30.5741 120.013 30.3846 119.681 30.0488C119.349 29.713 119.162 29.2581 119.16 28.7832V17.9895C119.16 14.768 117.755 12.4237 114.984 12.4237C112.71 12.4237 111.057 14.2647 110.478 16.1071C110.275 16.6821 110.177 17.2894 110.187 17.8998V28.779C110.187 29.015 110.141 29.2487 110.052 29.4667C109.962 29.6846 109.831 29.8826 109.666 30.0491C109.501 30.2157 109.305 30.3476 109.089 30.4373C108.873 30.527 108.642 30.5727 108.409 30.5718C107.939 30.5718 107.489 30.3829 107.157 30.0467C106.824 29.7105 106.638 29.2545 106.638 28.779L106.612 15.3527Z" fill="#151515"/>
<path d="M159.207 19.8306C159.207 27.3216 154.08 30.5871 149.242 30.5871C143.825 30.5871 139.648 26.57 139.648 20.1671C139.648 13.3878 144.032 9.41064 149.572 9.41064C155.32 9.41064 159.207 13.6374 159.207 19.8306ZM143.329 20.0403C143.329 24.4766 145.851 27.8235 149.407 27.8235C152.881 27.8235 155.486 24.5138 155.486 19.963C155.486 16.532 153.791 12.1797 149.49 12.1797C145.19 12.1797 143.329 16.19 143.329 20.0403Z" fill="#151515"/>
<path d="M162.867 27.6811C162.917 27.5255 162.999 27.3823 163.108 27.2608C163.217 27.1394 163.349 27.0423 163.497 26.976C163.645 26.9097 163.805 26.8756 163.967 26.8759C164.129 26.8762 164.289 26.911 164.437 26.9778C165.483 27.4481 166.809 27.8232 168.092 27.8232C170.739 27.8232 171.98 26.4841 171.98 24.8114C171.98 23.0531 170.946 22.0905 168.257 21.088C164.66 19.7903 162.965 17.7783 162.965 15.3539C162.965 12.0898 165.57 9.41167 169.871 9.41167C171.223 9.40771 172.563 9.66757 173.818 10.177C174.09 10.2916 174.309 10.5072 174.43 10.7797C174.55 11.0522 174.564 11.361 174.467 11.6429L174.321 12.0718C174.269 12.2231 174.188 12.3622 174.081 12.4803C173.975 12.5985 173.846 12.6933 173.701 12.7588C173.557 12.8243 173.401 12.8592 173.243 12.8613C173.085 12.8634 172.928 12.8327 172.782 12.771C171.834 12.3764 170.819 12.1731 169.794 12.1725C167.644 12.1725 166.445 13.4274 166.445 14.9306C166.445 16.6047 167.644 17.3577 170.249 18.3616C173.723 19.7006 175.501 21.4589 175.501 24.4721C175.501 28.0286 172.776 30.5399 168.016 30.5399C166.43 30.5517 164.856 30.251 163.383 29.6545C163.11 29.5422 162.889 29.3296 162.764 29.0593C162.639 28.789 162.62 28.481 162.71 28.1969L162.867 27.6811Z" fill="#151515"/>
</svg>
